<svg xmlns="http://www.w3.org/2000/svg" xmlns:xlink="http://www.w3.org/1999/xlink" width="247" height="521" viewBox="0 0 247 521">
    <defs>
        <path id="a" d="M92.295 218.362s17.68 5.039 35.362 5.039c18.118 0 36.236-5.04 36.236-5.04v36.954s-18.15 5.04-36.3 5.04c-17.65 0-35.298-5.04-35.298-5.04v-36.953z"/>
        <mask id="c" width="71.598" height="41.993" x="0" y="0" fill="#fff">
            <use xlink:href="#a"/>
        </mask>
        <rect id="b" width="41.846" height="8.497" x="1.334" y="216.56" rx="4.248"/>
        <mask id="d" width="41.846" height="8.497" x="0" y="0" fill="#fff">
            <use xlink:href="#b"/>
        </mask>
    </defs>
    <g fill="none" fill-rule="evenodd">
        <g transform="matrix(1 0 0 -1 1 520)">
            <path fill="#FFF" d="M60.328 160.906L86.16 76.3l40.855-38.174 41.714 6.898s27.818 40.91 27.818 44.031c0 3.121 16.516 99.1 16.516 99.1s-23.15 46.816-28.388 46.816c-5.237 0-110.148 11.955-112.667 11.955-2.52 0-11.513-30.823-11.513-30.823l-.168-55.197z"/>
            <path fill="#EFEFEF" stroke="#979797" stroke-width="1.12" d="M61.447 171.544s-10.86-35.273 15.452-54.277c20.07-64.308 83.096-98.85 116.747 0 0 3.12 20.537 81.527 20.537 81.527s-23.15 46.815-28.388 46.815c-5.237 0-110.148 11.955-112.667 11.955-2.52 0-11.513-30.823-11.513-30.823l-.168-55.197z"/>
            <path fill="#FFF" stroke="#A2A2A2" stroke-width="1.12" d="M223.678 331.79l3.912-.926s-3.315-36.923 7.949-84.853c-3.939-5.83-9.414 1.297-9.414 1.297l-5.757 65.333 3.31 19.148zM11.504 538.634c4.801 16.805 9.753 49.893 45.273 102.964 35.52 53.07 112.295 68.334 156.339-2.758 44.044-71.093 33.73-207.587 17.58-244.672C214.546 357.083 35.6 277.152 35.6 277.152l-9.446 1.776s-47.33 155.562-14.65 259.706z" opacity=".99"/>
            <path fill="#FFF" stroke="#A2A2A2" stroke-width="1.12" d="M21.205 525.497c4.415 17.545 8.968 52.088 41.626 107.493 32.659 55.404 103.25 71.34 143.746-2.88 40.496-74.218 32.85-207.351 23.26-256.2-1.432-11.726-11.966-49.414 0-117.763 8.105-22.95 10.725-46.56 10.725-65.22-26.458-4.498-64.96 47.727-110.406 52.519-32.372 3.413-67.783-43.601-104.944-41.317 3.934 28.243 3.524 27.791 3.177 55.842-13.307 78.181-37.23 158.802-7.184 267.526z" opacity=".99"/>
            <path fill="#FFF" stroke="#A2A2A2" stroke-width="1.12" d="M63.989 462.481s-24.107-11.711-29.792-3.82c-2.841 3.82-2.718 6.165 0 19.44 2.719 13.277 15.816 119.157 47.933 158.744 7.042 9.256 57.51 61.042 104.924-2.159 6.616-10.109 18.424-34.016 30.231-97.372 3.461-16.533 11.367-54.457 11.367-78.653 0-3.033-1.965-10.363-9.833-7.891-3.185 1.475-15.258 4.532-15.258 4.532l-3.016 23.779-5.406 26.387-11.973 11.18-25.729 10.007-41.892.26s-31.417-8.208-31.417-9.805c0-1.596-13.757-22.174-13.757-22.174l-6.382-32.455zM48.69 87.079s1.485-63.812 68.448-84.249c3.46-1.544 98.245-24.43 109.66 102.95-2.374 7.854-.735 6.83-26.352 4.25-5.493-.552-18.54-51.978-33.02-63.183-8.068-6.244-22.806-11.506-35.658-8.929-6.05 1.213-23.379 8.947-35.733 22.396-13.24 14.414-21.514 34.664-27.29 37.867-26.9 14.916-20.054-11.102-20.054-11.102z" opacity=".99"/>
            <path fill="#FFF" stroke="#A2A2A2" stroke-width="1.12" d="M57.813 90.289l-8.357-7.137S67.704 6.725 137.795 3.206C156.54 2.11 189.688 14.8 205.403 42.065c5.593 10.979 13.77 24.982 17.67 60.877-7.029-9.387-23.906-45.937-23.906-47.069 0-1.132-34.331-34.273-34.331-34.273l-25.84-4.84L108.483 24s-36.56 31.876-36.56 33.31c0 1.432-14.11 32.979-14.11 32.979z" opacity=".99"/>
            <path fill="#FFF" stroke="#A2A2A2" stroke-width="1.12" d="M59.592 87.569s-6.457-1.322 1.987-21.372c.742-2.72 27.02-54.24 74.034-55.493 13.891.648 48.98 0 72.772 54.637 1.235 2.631 7.947 16.713 1.411 23.996-1.251-3.101-7.046-13.058-10.202-18.196-4.257-6.928-8.602-13.445-8.602-13.445l-22.878-22.725-22.574-8.788-20.738 1.09s-14.09 5.147-15.756 5.147c-1.666 0-11.684 8.415-11.684 8.415L83.109 53.263 65.25 75.465l-5.66 12.104z" opacity=".99"/>
            <path fill="#FFF" stroke="#A2A2A2" stroke-width="1.12" d="M67.757 70.717C78.84 55.492 99.084 27.823 132.03 23.07c18.36-1.7 36.809 3.918 59.497 34.115 5.464 7.286 20.382 31.543 22.923 36.81 2.542 5.268 12.292 26.971 12.292 26.971l6.799 38.317-6.944 51.959-16.28 33.43-14.077 32.12-10.771 22.849-27.42 6.736-57.627-4.974-24.702-10.356-7.964-12.847-11.672-31.597-19.036-24.575-6.529-32.616 3.673-43.591 9.533-36.59s6.267-10.665 24.03-38.513zm10.829 192.408c2.262 8.862 6.143 21.353 6.143 21.353l13.73 8.305 24.456 3.566s22.162.908 25.663.908c3.501 0 14.38-.556 15.618-1.792 1.24-1.235 3.104-4.254 5.38-5.902 2.276-1.648 8.85-21.942 8.85-21.942s15.946-29.313 19.587-53.04c0-22.658 0-58.11-18.401-114.668-8.594-20.927-20.425-55.964-44.649-51.746-12.048 2.675-36.503 9.943-56.377 86.835-2.369 12.73-7.405 57.253-7.405 57.253s5.142 63.232 7.405 70.87z" opacity=".99"/>
            <path fill="#FFF" stroke="#A2A2A2" stroke-width="1.12" d="M191.246 303.247s-7.202-26.672 21.776-71.855c4.234-5.835 42.487-56.728-4.11-147.198 7.896-.915 8.615-12.208 8.615-12.208s3.03 11.413 6.242 22.417c12.773 30.15 30.604 89.245 2.74 140.064-5.323 12.194-30.828 45.105-30.828 62.29-2.586 4.496-4.435 6.49-4.435 6.49zM71.253 307.39c2.143-31.088-5.001-54.596-18.408-70.875-8.613-10.459-10.45-12.641-14.755-21.666-2.563-4.914-8.27-18.494 6.142-88.01 1.476-6.285 4-24.014 12.915-36.442-2.586-3.883-5.07-6.93-5.07-15.47-6.902 8.54-61.452 93.652-1.904 186.525 10.005 17.611 23.223 54.77 21.08 45.939zM175.08 217.8s6.678-29.893 7.382-32.258c.704-2.366 6.466-4.694 6.466-4.694s5.606 2.598 5.606 2.892c0 .294.724 9.78.724 9.78l-8.266 19.562s-6.213 3.18-6.733 3.18c-.52 0-5.18 1.538-5.18 1.538z" opacity=".99"/>
            <path fill="#FFF" stroke="#A2A2A2" stroke-width="1.12" d="M94.714 227.245c-23.66-16.04-20.825-38.17-25.832-53.306-2.72-5.722-7.359-1.235-7.359-1.235s-2.666 3.804-2.666 4.098c0 .294-1.337 8.756-1.337 8.756l6.682 16.886s4.983 10.953 5.503 10.953c.52 0 25.192 20.157 25.01 13.848z" opacity=".99"/>
            <path fill="#FFF" stroke="#A2A2A2" stroke-width="1.12" d="M80.903 270.72s-12.259-35.594-19.55-46.569c-4.897-8.243-9.407-33.738-4.704-51.458 1.59-4.238 9.902-9.44 12.43 1.992 0 5.072-7.881 28.61 13.46 42.542 5.112 2.903 46.94 19.792 90.319.842 4.07-2.428 17.266-13.96 19.742-25.155.616-2.125 2.265-11.232-6.251-9.077-1.31.471-2.314 1.16-4.23 3.527 1.487-5.931 2.116-17.337 13.137-15.008 2.244.758 13.512 9.341 5.965 28.548-1.23 3.364-4.34 20.851-4.34 20.851s-11.9 37.69-16.207 41.258c-5.766 2.668-23.804 14.713-61.17 15.606-19.885 0-38.601-7.899-38.601-7.899z" opacity=".99"/>
            <use fill="#FFF" stroke="#A2A2A2" stroke-width="2.24" mask="url(#c)" opacity=".99" xlink:href="#a"/>
            <path fill="#FFF" stroke="#A2A2A2" stroke-width="1.12" d="M47.276 248.806c8.495-1.753 29.581 14.964 86.777 25.97 25.295 4.867 41.137 7.372 80.444 7.792 7.812.463 4.688 7.107 3.576 8.793-2.762 3.843 2.66 7.1-7.535 6.64-2.366.318-42.682 2.617-89.338-6.896-22.106-4.508-47.83-14.965-70.993-25.353-13.166-5.905-6.52-5.872-6.737-10.373" opacity=".99"/>
            <path fill="#FFF" stroke="#A2A2A2" stroke-width="1.12" d="M53.813 287.1c6.298-5.403 35.1-.95 91.76-17.993 25.058-7.538 40.412-12.719 74.886-30.49 7.088-3.211 8.522 3.865 8.608 5.808-.002 4.533 6.752 4.796-2.407 9.107-1.862 1.361-35.514 21.904-82.069 35.352-22.057 6.372-50.983 9.367-77.635 11.238-15.15 1.064-9.346-1.973-12.347-5.69M5.253 202.297l-.949 2.474s.949 21.381 3.987 27.12c1.098 3.807 7.478 5.512 13.902 6.591 3.955-3.014 5.921-9.966 5.921-9.966l-1.096-11.011-8.311-12.62s.009-37.655 10.192-54.211c10.183-16.557 10.083-30.699 10.083-30.699l-.857-14.981 5.5-23.785-1.256-14.611-2.89 1.507-12.986 42.122-14.362 46.629-3.84 20.57-3.038 24.871z" opacity=".99"/>
            <path fill="#FFF" stroke="#A2A2A2" stroke-width="1.12" d="M21.852 230.602c.441 1.491.33 1.983.825 2.766-3.084 4.794 1.867 9.628 5.764 11.465 6.157 4.893 7.75 6.6 14.833 11.963 7.082 5.363 13.258 12.61 22.861 19.078 18.44 10.754 38.494 12.689 83.208 6.35 44.713-6.338 66.824-32.813 68.688-35.268 12.259-15.652 17.306-33.626 17.306-33.626l2.81-1.145.212 5.593-22.192 40.103-7.443 8.318-43.814 20.429s-39.47 6.243-40.331 6.243c-.861 0-45.707-5.468-46.466-5.468-.759 0-27.094-15.419-27.094-15.419L30.7 255.81l-10.065-9.949-1.04-8.675s.37-3.73 2.258-6.584z" opacity=".99"/>
            <path fill="#FFF" stroke="#A2A2A2" stroke-width="1.12" d="M21.6 229.316c.895 2.985-6.082 11.556 4.832 17.767 2.845 1.786 12.74 10.146 28.684 23.368 6.906 5.019 20.257 22.504 74.331 16.998 6.306-1.456 90.487-1.856 108.376-74.97 2.784 3.152 3.654 3.785 0 26.495-8.213 38.707-33.74 63.504-79.544 71.777-6.569 1.307-68.786 9.392-103.163-27.23-2.644-2.636-18.482-18.05-32.206-22.4-1.867-.559-4.272-2.129-4.57-5.338-.392-3.957-.453-8.38.298-16.809.233-4.02.863-6.035 2.963-9.658zM26.82 206.965s-1.908 7.645-7.297 7.645c-2.26 0-10.746 2.206-11.947-10.303 0-3.99-2.774-11.263 10.662-61.178 1.285-5.119 23.569-76.804 23.569-76.804l-3.506-.524-26.332 84.804s-8.026 27.989-8.026 49.315c0 3.092.134 10.603 3.178 13.882 1.276 2.332 10.454 9.396 20.225.481.5-1.349-.525-7.318-.525-7.318z" opacity=".99"/>
            <use fill="#FFF" stroke="#A2A2A2" stroke-width="2.24" mask="url(#d)" opacity=".99" transform="rotate(73 22.257 220.808)" xlink:href="#b"/>
            <path fill="#FFF" stroke="#A2A2A2" stroke-width="1.12" d="M77.583 477.53c2.115-3.114 17.333-3.906 50.684-14.818 15.437-5.05 31.15-9.785 51.993-17.903 4.315-2.414 6.75 3.756 6.892 5.49.313 3.525 2.048 5.292-3.521 8.556-1.11 1.095-22.274 10.492-50.962 19.548-13.592 4.29-26.474 7.602-46.224 11.539-4.357.672-6.548.677-9.38-4.16-.362-1.055-2.126-5.247.518-8.252z" opacity=".99"/>
            <path fill="#FFF" stroke="#A2A2A2" stroke-width="1.12" d="M80.113 446.925c3.417-1.58 16.87 5.578 51.077 13.402 15.834 3.621 31.74 7.656 53.787 11.433 4.942.153 3.852 6.696 3.08 8.256-1.546 3.182-.97 5.59-7.424 5.52-1.515.366-24.496-2.478-53.75-9.492-13.861-3.323-26.61-7.119-45.566-13.916-4.08-1.668-5.961-2.792-5.897-8.397.232-1.09.88-5.592 4.693-6.806zM92.462 360.02c2.107-3.283 18.026-5.18 52.589-18.562 15.998-6.194 32.297-12.09 53.851-21.757 4.437-2.739 5.944 3.595 6.154 5.328.357 4.042 4.847 4.394-.873 8.078-1.124 1.18-24.222 12.63-53.965 23.808-14.092 5.296-27.474 9.557-48.03 14.943-10.081 2.282-7.568-1.146-9.848-4.513-.417-1.033-2.542-4.112.122-7.325z" opacity=".99"/>
            <path fill="#FFF" stroke="#A2A2A2" stroke-width="1.12" d="M68.225 353.74c6.793-1.608 24.16 13.607 70.447 22.968 20.47 4.14 33.277 6.252 64.916 6.363 6.296.357 3.942 7.378 3.087 8.877-2.13 3.42 2.31 6.267-5.904 5.928-1.896.296-34.28 2.599-72.05-5.511-17.896-3.843-38.846-12.927-57.732-21.967-10.84-4.958-6.226-5.485-6.508-9.467.206-1.06-1.008-6.159 3.744-7.192z" opacity=".99"/>
            <path fill="#FFF" stroke="#A2A2A2" stroke-width="1.12" d="M62.45 383.052c5.379-4.51 27.502 1.383 73.21-10.483 20.215-5.248 32.649-8.975 61.086-22.924 5.81-2.465 6.33 4.06 6.233 5.831-.385 4.121 4.87 4.792-2.652 8.125-1.569 1.118-29.598 17.639-67.107 26.884-17.772 4.38-40.623 5.25-61.604 5.246-11.926-.003-7.134-2.393-9.164-5.964-.288-1.077-3.804-3.646-.001-6.715zM65.807 320.52c2.697-1.194 9.154 6.634 28.799 16.817 9.093 4.713 18.105 9.82 31.16 15.198 3.142.556-.203 6.086-1.186 7.483-2.336 3.178-1.053 6.038-5.197 5.433-1.092.217-15.744-4.744-32.444-13.755-7.913-4.269-14.96-8.888-25.082-16.837-4.745-4.162-1.825-5.227-.54-9.023.489-1.001 1.651-4.497 4.49-5.315z" opacity=".99"/>
            <path fill="#FFF" stroke="#A2A2A2" stroke-width="1.12" d="M132.05 501.98c12.709.07 23.12-.97 27.18-1.681 14.216-3.22 8.654-28.427 8.654-31.132-3.725-16.977 4.864-29.135 7.076-33.797 9.29-16.631 6.187-28.03 4.63-33.671-3.498-15.48 5.762-29.999 8.11-35.915 6.35-12.758 2.482-38.442 2.482-44.482-3.381-36.772 15.534-59.396 19.146-63.304 17.293-15.523 26.487-50.324 30.737-66.511 3.513 23.947.13 33.394-1.465 37.844-16.241 33.71-19.433 79.538-19.433 81.568 0 2.03 1.14 20.613 1.14 24.16 0 14.203-3.04 23.015-4.053 26.764-3.921 11.933-2.508 17.16-1.858 22.224 4.952 31.699 2.821 34.789 2.068 37.479-13.004 32.303-12.722 39.552-12.722 42.694 1.384 15.497-.803 29.475-1.385 31.662-10.818 41.626-64.329 39.223-70.198 39.103v.013c-66.27-1.153-66.57-37.337-67.28-41.32-3.227-34.425-10.598-48.88-11.928-52.31-10.329-20.695-9.181-27.377-9.181-29.079 6.73-30.284 2.759-53.99 1.846-58.215-3.568-21.877-1.146-24.958-.24-27.966 6.006-14.991 7.306-25.87 7.306-35.812 0-16.71-6.665-27.953-8.912-33.554-22.823-41.719-20.903-78.019-20.903-78.019s2.002 18.723 4.67 27.395c5.791 21.718 10.266 30.209 25.414 51.863 20.79 28.588 19.509 55.81 19.509 64.072 0 4.903-2.312 14.803-3.323 20.83-2.489 14.573 1.043 21.73 4.605 28.115 8.862 14.27 7.015 16.122 7.015 18.932-1.538 5.899-3.046 19.712-3.046 22.178 0 15.498 6.07 22.292 7.494 24.102 10.73 11.536 5.477 29.14 4.725 39.694-2.55 18.134 7.42 22.398 10.421 23.124 10.656 2.092 21.842 2.848 31.698 2.93v.021z" opacity=".99"/>
            <path fill="#FFF" stroke="#A2A2A2" stroke-width="1.12" d="M72.357 445.522c2.385-3.088 18.408-3.59 54.006-13.908 16.478-4.776 33.228-9.229 55.543-16.981 4.658-2.342 11.501.268 11.56 2.014.003 4.057 13.694 2.699 7.674 5.87-1.223 1.078-40.372 16.402-70.976 24.945-14.5 4.048-28.202 7.127-49.15 10.7-10.242 1.394-7.44-1.802-9.417-5.354-.326-1.066-2.174-4.319.76-7.286z" opacity=".99"/>
            <path fill="#FFF" stroke="#A2A2A2" stroke-width="1.12" d="M72.284 412.34c3.787-1.38 18.515 10.155 56.124 20.09 17.408 4.598 34.892 9.616 59.147 14.746 5.446.454 2.897 6.452 2.026 7.973-2.144 3.465 1.475 6.437-5.64 5.975-1.674.277-28.326-4.344-60.485-13.164-15.237-4.18-39.336-15.093-59.716-26.645-6.617-4.834 1.526-2.84 1.62-6.913.269-1.082 2.704-1.073 6.924-2.061zM53.28 343.444c1.644-1.208 5.782 2.299 18.642 3.386 8.876.672 42.221 3.336 59.904 3.285 13.457-.039 38.452.126 56.64-2.239 12.747-2.163 15.72-3.357 20.462-3.619 5.123-.967 4.261 5.486 3.836 7.18-1.115 3.901 2.37 5.42-3.237 8.037-6.677 3.91-15.094 3.905-24.175 5.036-10.787.801-35.693 2.578-54.24 2.447-12.03-.084-38.366-1.858-53.226-3.265-7.738-.945-16.208-2.117-21.078-4.22-8.933-3.777-5.345-5.273-6.266-9.233-.02-1.115-.9-4.751 2.738-6.795z" opacity=".99"/>
            <path fill="#FFF" stroke="#A2A2A2" stroke-width="1.12" d="M57.976 409.927c5.378-4.51 27.502 1.384 73.21-10.483 20.214-5.248 32.648-8.975 61.085-22.924 5.81-2.464 6.33 4.06 6.233 5.832-.385 4.12 4.87 4.792-2.651 8.125-1.57 1.118-29.6 17.638-67.108 26.883-17.772 4.38-40.623 5.251-61.603 5.246-11.926-.003-7.135-2.392-9.165-5.964-.288-1.077-3.804-3.646-.001-6.715zM78.66 325.589c4.866-5.233 27.8-.245 72.313-16.016 19.685-6.975 31.734-11.806 58.644-28.74 5.543-3.043 6.845 4.001 6.959 5.93.105 4.494 5.465 4.889-1.695 8.981-1.443 1.312-27.636 21.01-64.222 33.418-17.334 5.879-40.192 8.273-61.275 9.598-11.984.754-7.454-2.142-9.92-5.888-.419-1.15-4.258-3.713-.803-7.283z" opacity=".99"/>
            <path fill="#FFF" stroke="#A2A2A2" stroke-width="1.12" d="M62.59 290.544c6.9-1.86 23.706 14.524 69.812 24.737 20.39 4.517 33.169 6.805 64.963 6.703 6.313.358 3.685 7.022 2.76 8.717-2.293 3.867-.06 4.166-8.3 3.843-1.92.347-32.468 6.049-70.07-2.817-17.815-4.2-38.468-14.282-57.05-24.33-10.562-5.712-5.186-5.768-5.293-10.25.255-1.197-1.642-5.406 3.179-6.603zM66.547 379.495c6.793-1.607 24.16 13.608 70.447 22.968 20.47 4.14 33.277 6.252 64.915 6.363 6.297.357 3.943 7.378 3.088 8.878-2.13 3.42 2.31 6.266-5.904 5.927-1.896.297-34.28 2.6-72.05-5.51-17.896-3.844-38.846-12.927-57.732-21.968-10.84-4.957-6.226-5.485-6.508-9.466.206-1.061-1.008-6.16 3.744-7.192zM73.687 476.338c4.268-3.12 40.523 12.53 112.399.31 4.711-.83 5.537 1.554 5.12 3.148-.534 2.033-2.777 9.34-11.487 12.628-2.005.939-44.963 13.362-97.02-.975-3.76-1.24-9.122-4.083-10.19-9.278 0-1.054-1.328-4.636 1.178-5.833z" opacity=".99"/>
            <path fill="#FFF" stroke="#A2A2A2" stroke-width="1.12" d="M57.494 318.466c1.576-1.236 5.663 2.203 18.188 3.078 8.642.525 41.114 2.638 58.308 2.296 13.085-.26 37.392-.508 55.037-3.172 12.355-2.374 15.224-3.617 19.83-3.956 4.965-1.052 4.243 5.414 3.86 7.115-1.015 3.919 2.401 5.38-3.004 8.09-6.422 4.019-14.607 4.152-23.417 5.433-10.475.979-34.661 3.166-52.699 3.341-11.698.114-37.34-1.225-51.814-2.386-7.541-.818-15.798-1.85-20.572-3.872-8.753-3.629-5.291-5.185-6.259-9.128-.039-1.114-.96-4.736 2.542-6.84z" opacity=".99"/>
            <path stroke="#979797" stroke-width="1.12" d="M10.931 358.446l3.858-2.933s1.326 52.824 28.929 59.002M217.499 410.55s9.914 2.076 15.328-17.499M11.343 358.123s29.465-20.202 38.734-45.364M21.196 297.664s16.331-8.18 18.075-27.33"/>
        </g>
        <g fill="#FFF" stroke="#A2A2A2" stroke-width="1.6">
            <path d="M145.336 490s63.92-10.924 63.92-95.434c0-9.69 1.726-22.733 5.208-27.58 4.596-9.115 10.257-26.135 3.223-41.81-1.683-4.348-4.13-25.131-6.28-47.667-2.152-22.535-4.449-35.265-5.957-72.618 0-42.994-.094-31.797 7.306-88.924 1.708-24.522 15.167-48.859 2.652-105.255-4.002-18.1.96-40.991 2.092-52.592 1.132-11.602-1.147-43.444-15.054-63.98-4.28-6.109-14.786-19.614-36.226-15.308-4.176.85-27.57 10.592-21.185 39.38 6.386 28.787 6.919 60.08 6.919 74.4-2.209 0-2.338 6.123-8.161-47.887-1.023-8.403-1.714-55.649-27.19-47.192-5.57 1.466-25.59 8.968-15.833 33.9 7.204 18.438 15.509 57.829 8.63 71.44.866-9.706-3.057-50.422-11.498-65.168-5.35-10.587-8.882-12.582-16.927-12.582-2.961 0-30.391 8.944-14.667 41.155 5.243 14.053 12.233 44.434 5.243 57.594 0-8.014-.323-32.825-5.27-47.885-3.575-14.794-10.69-15.853-19.893-10.864-4.71 3.71-18.558 10.864-8.759 52.92 5.497 15.898 4.54 32.902.618 42.545 1.528-12.673-.288-41.796-5.791-53.12-3.06-2.655-21.788.31-24.689 33.216 0 19.904-8.864 31.702-2.418 71.363 2.418 24.023 4.46 48.961 14.055 89.174 21.224 102.75 34.457 94.469 43.302 151.196 8.845 63.612-5.734 102.814 50.766 131.84C122.362 490 145.336 490 145.336 490z"/>
            <path d="M31.653 13.378s-2.382-2.213-6.132-.984c-1.928.538-5.339 2.256-5.515 4.702.332 2.568.834 5.806.834 5.806s7.515-.115 12.131-3.691c-.164-2.48-1.318-5.833-1.318-5.833z"/>
        </g>
    </g>
</svg>
