<svg xmlns="http://www.w3.org/2000/svg" width="247" height="293" viewBox="0 0 247 293">
    <g fill="none" fill-rule="evenodd">
        <g stroke-width="1.12">
            <path fill="#FFF" stroke="#A2A2A2" d="M234.496 149.366c-4.801-16.805-9.753-49.893-45.273-102.964-35.52-53.07-112.295-68.334-156.339 2.758-44.044 71.093-33.73 207.587-17.58 244.672C31.454 330.917 210.4 410.848 210.4 410.848l9.446-1.776s47.33-155.562 14.65-259.706z" opacity=".99"/>
            <path fill="#FFF" stroke="#A2A2A2" d="M224.795 162.503c-4.415-17.545-8.968-52.088-41.626-107.493C150.51-.394 79.919-16.33 39.423 57.89c-40.496 74.218-32.85 207.351-23.26 256.2 1.432 11.726 11.966 49.414 0 117.763-8.105 22.95-10.725 46.56-10.725 65.22 26.458 4.498 64.96-47.727 110.406-52.519 32.372-3.413 67.783 43.601 104.944 41.317-3.934-28.243-3.524-27.791-3.177-55.842 13.307-78.181 37.23-158.802 7.184-267.526z" opacity=".99"/>
            <path fill="#FFF" stroke="#A2A2A2" d="M182.011 225.519s24.107 11.711 29.792 3.82c2.841-3.82 2.718-6.165 0-19.44-2.719-13.277-15.816-119.157-47.933-158.744-7.042-9.256-57.51-61.042-104.924 2.159-6.616 10.109-18.424 34.016-30.231 97.372-3.461 16.533-11.367 54.457-11.367 78.653 0 3.033 1.965 10.363 9.833 7.891 3.185-1.475 15.258-4.532 15.258-4.532l3.016-23.779 5.406-26.387 11.973-11.18 25.729-10.007 41.892-.26s31.417 8.208 31.417 9.805c0 1.596 13.757 22.174 13.757 22.174l6.382 32.455z" opacity=".99"/>
            <path fill="#FFF" stroke="#A2A2A2" d="M168.417 210.47c-2.115 3.114-17.333 3.906-50.684 14.818-15.437 5.05-31.15 9.785-51.993 17.903-4.315 2.414-6.75-3.756-6.892-5.49-.313-3.525-2.048-5.292 3.521-8.556 1.11-1.095 22.274-10.492 50.962-19.548 13.592-4.29 26.474-7.602 46.224-11.539 4.357-.672 6.548-.677 9.38 4.16.362 1.055 2.126 5.247-.518 8.252z" opacity=".99"/>
            <path fill="#FFF" stroke="#A2A2A2" d="M165.887 241.075c-3.417 1.58-16.87-5.578-51.077-13.402-15.834-3.621-31.74-7.656-53.787-11.433-4.942-.153-3.852-6.696-3.08-8.256 1.546-3.182.97-5.59 7.424-5.52 1.515-.366 24.496 2.478 53.75 9.492 13.861 3.323 26.61 7.119 45.566 13.916 4.08 1.668 5.961 2.792 5.897 8.397-.232 1.09-.88 5.592-4.693 6.806zM177.775 334.26c-6.793 1.608-24.16-13.607-70.447-22.968-20.47-4.14-33.277-6.252-64.916-6.363-6.296-.357-3.942-7.378-3.087-8.877 2.13-3.42-2.31-6.267 5.904-5.928 1.896-.296 34.28-2.599 72.05 5.511 17.896 3.843 38.846 12.927 57.732 21.967 10.84 4.958 6.226 5.485 6.508 9.467-.206 1.06 1.008 6.159-3.744 7.192z" opacity=".99"/>
            <path fill="#FFF" stroke="#A2A2A2" d="M183.55 304.948c-5.379 4.51-27.502-1.383-73.21 10.483-20.215 5.248-32.649 8.975-61.086 22.924-5.81 2.465-6.33-4.06-6.233-5.831.385-4.121-4.87-4.792 2.652-8.125 1.569-1.118 29.598-17.639 67.107-26.884 17.772-4.38 40.623-5.25 61.604-5.246 11.926.003 7.134 2.393 9.164 5.964.288 1.077 3.804 3.646.001 6.715z" opacity=".99"/>
            <path fill="#FFF" stroke="#A2A2A2" d="M113.95 186.02c-12.709-.07-23.12.97-27.18 1.681-14.216 3.22-8.654 28.427-8.654 31.132 3.725 16.977-4.864 29.135-7.076 33.797-9.29 16.631-6.187 28.03-4.63 33.671 3.498 15.48-5.762 29.999-8.11 35.915-6.35 12.758-2.482 38.442-2.482 44.482 3.381 36.772-15.534 59.396-19.146 63.304-17.293 15.523-26.487 50.324-30.737 66.511-3.513-23.947-.13-33.394 1.465-37.844 16.241-33.71 19.433-79.538 19.433-81.568 0-2.03-1.14-20.613-1.14-24.16 0-14.203 3.04-23.015 4.053-26.764 3.921-11.933 2.508-17.16 1.858-22.224-4.952-31.699-2.821-34.789-2.068-37.479 13.004-32.303 12.722-39.552 12.722-42.694-1.384-15.497.803-29.475 1.385-31.662 10.818-41.626 64.329-39.223 70.198-39.103v-.013c66.27 1.153 66.57 37.337 67.28 41.32 3.227 34.425 10.598 48.88 11.928 52.31 10.329 20.695 9.181 27.377 9.181 29.079-6.73 30.284-2.759 53.99-1.846 58.215 3.568 21.877 1.146 24.958.24 27.966-6.006 14.991-7.306 25.87-7.306 35.812 0 16.71 6.665 27.953 8.912 33.554 22.823 41.719 20.903 78.019 20.903 78.019s-2.002-18.723-4.67-27.395c-5.791-21.718-10.266-30.209-25.414-51.863-20.79-28.588-19.509-55.81-19.509-64.072 0-4.903 2.312-14.803 3.323-20.83 2.489-14.573-1.043-21.73-4.605-28.115-8.862-14.27-7.015-16.122-7.015-18.932 1.538-5.899 3.046-19.712 3.046-22.178 0-15.498-6.07-22.292-7.494-24.102-10.73-11.536-5.477-29.14-4.725-39.694 2.55-18.134-7.42-22.398-10.421-23.124-10.656-2.092-21.842-2.848-31.698-2.93v-.021z" opacity=".99"/>
            <path fill="#FFF" stroke="#A2A2A2" d="M173.643 242.478c-2.385 3.088-18.408 3.59-54.006 13.908-16.478 4.776-33.228 9.229-55.543 16.981-4.658 2.342-11.501-.268-11.56-2.014-.003-4.057-13.694-2.699-7.674-5.87 1.223-1.078 40.372-16.402 70.976-24.945 14.5-4.048 28.202-7.127 49.15-10.7 10.242-1.394 7.44 1.802 9.417 5.354.326 1.066 2.174 4.319-.76 7.286z" opacity=".99"/>
            <path fill="#FFF" stroke="#A2A2A2" d="M173.716 275.66c-3.787 1.38-18.515-10.155-56.124-20.09-17.408-4.598-34.892-9.616-59.147-14.746-5.446-.454-2.897-6.452-2.026-7.973 2.144-3.465-1.475-6.437 5.64-5.975 1.674-.277 28.326 4.344 60.485 13.164 15.237 4.18 39.336 15.093 59.716 26.645 6.617 4.834-1.526 2.84-1.62 6.913-.269 1.082-2.704 1.073-6.924 2.061z" opacity=".99"/>
            <path fill="#FFF" stroke="#A2A2A2" d="M188.024 278.073c-5.378 4.51-27.502-1.384-73.21 10.483-20.214 5.248-32.648 8.975-61.085 22.924-5.81 2.464-6.33-4.06-6.233-5.832.385-4.12-4.87-4.792 2.651-8.125 1.57-1.118 29.6-17.638 67.108-26.883 17.772-4.38 40.623-5.251 61.603-5.246 11.926.003 7.135 2.392 9.165 5.964.288 1.077 3.804 3.646.001 6.715z" opacity=".99"/>
            <path fill="#FFF" stroke="#A2A2A2" d="M179.453 308.505c-6.793 1.607-24.16-13.608-70.447-22.968-20.47-4.14-33.277-6.252-64.915-6.363-6.297-.357-3.943-7.378-3.088-8.878 2.13-3.42-2.31-6.266 5.904-5.927 1.896-.297 34.28-2.6 72.05 5.51 17.896 3.844 38.846 12.927 57.732 21.968 10.84 4.957 6.226 5.485 6.508 9.466-.206 1.061 1.008 6.16-3.744 7.192zM172.313 211.662c-4.268 3.12-40.523-12.53-112.399-.31-4.711.83-5.537-1.554-5.12-3.148.534-2.033 2.777-9.34 11.487-12.628 2.005-.939 44.963-13.362 97.02.975 3.76 1.24 9.122 4.083 10.19 9.278 0 1.054 1.328 4.636-1.178 5.833z" opacity=".99"/>
            <path stroke="#979797" d="M235.069 329.554l-3.858 2.933s-1.326-52.824-28.929-59.002M28.501 277.45s-9.914-2.076-15.328 17.499"/>
        </g>
        <g fill="#FFF" stroke="#A2A2A2" stroke-width="1.6">
            <path d="M99.54 617s-61.28-10.514-61.28-91.847c0-9.327-1.655-21.879-4.993-26.543-4.407-8.773-9.835-25.154-3.09-40.24 1.613-4.184 3.958-24.187 6.02-45.875 2.063-21.689 4.265-33.94 5.711-69.889 0-41.379.09-30.602-7.005-85.582-1.636-23.601-14.54-47.023-2.542-101.3 3.837-17.42-.92-39.45-2.005-50.615-1.086-11.166 1.099-41.812 14.432-61.575 4.104-5.88 14.176-18.877 34.73-14.733 4.004.818 26.433 10.194 20.31 37.9-6.122 27.704-6.632 57.822-6.632 71.603 2.117 0 2.241 5.894 7.824-46.087.98-8.087 1.643-53.557 26.068-45.418 5.34 1.411 24.533 8.63 15.178 32.625-6.906 17.746-14.868 55.656-8.274 68.757-.83-9.342 2.932-48.528 11.024-62.72 5.129-10.19 8.515-12.11 16.228-12.11 2.84 0 29.137 8.609 14.062 39.61-5.027 13.524-11.728 42.764-5.027 55.429 0-7.713.31-31.591 5.053-46.085 3.427-14.239 10.247-15.258 19.07-10.456 4.517 3.571 17.793 10.456 8.398 50.93-5.27 15.301-4.352 31.667-.592 40.947-1.464-12.197.277-40.225 5.552-51.124 2.934-2.555 20.888.3 23.67 31.968 0 19.156 8.498 30.51 2.318 68.681-2.318 23.12-4.275 47.121-13.475 85.823-20.348 98.889-33.035 90.918-41.514 145.513-8.48 61.222 5.497 98.95-48.67 126.885C121.566 617 99.54 617 99.54 617z"/>
            <path d="M56.753 38.875s8.012-4.707 19.906-2.076C81.45 37.91 93.366 42.223 95 48.884c-1.634 8.582-5.745 20.093-5.745 20.093S67.967 69.983 49 58.733c.9-8.296 7.753-19.858 7.753-19.858zM117.305 55.731s5.335-3.369 13.285-.972c4.096 1.08 11.27 4.24 11.418 8.254-.956 4.16-2.344 9.4-2.344 9.4s-16.154-.968-25.747-7.29c.588-4.033 3.388-9.392 3.388-9.392zM156.438 79.777s4.82-2.59 11.421.117c3.413 1.257 9.293 4.584 9.103 8.149-1.144 3.613-2.74 8.15-2.74 8.15s-13.72-2.046-21.416-8.35c.819-3.527 3.632-8.066 3.632-8.066zM184.765 115.063s3.711-2.726 8.605-.229c2.534 1.15 6.865 4.286 6.614 7.843-.97 3.635-2.311 8.202-2.311 8.202s-10.28-1.623-15.89-7.67c.725-3.54 2.982-8.146 2.982-8.146zM208.245 158.254s2.2-2.013 5.66-.896c1.78.488 4.928 2.05 5.09 4.273-.307 2.334-.772 5.279-.772 5.279s-6.936-.103-11.197-3.353c.152-2.254 1.219-5.303 1.219-5.303z"/>
        </g>
    </g>
</svg>
