<svg xmlns="http://www.w3.org/2000/svg" height="980" width="980" viewBox="0 0 980.0003 980.00002"><path fill="#005ca7" d="M478.19 962.48c-66.718-94.91-140.93-221.63-184.74-315.46-52.836-113.16-81.915-203.41-93.673-290.71-3.547-26.338-3.603-78.535-.107-100 21.244-130.43 115.25-228.31 241.67-251.62 20.476-3.776 76.667-3.776 97.143 0 134.52 24.803 232.96 136.22 243.64 275.74 2.588 33.821-1.266 78.031-10.784 123.73-26.212 125.85-99.445 289.21-206.86 461.43-22.697 36.392-67.894 104.8-73.922 111.89-.551.648-6.119-6.102-12.373-15zm35.964-513.35c20.767-3.621 39.332-11.087 57.777-23.236 10.541-6.942 31.081-27.417 38.282-38.162 20.802-31.036 30.371-69.168 26.154-104.22-7.704-64.031-50.509-114.34-110.84-130.28-11.868-3.134-17.449-3.768-34.184-3.881-27.485-.186-44.725 3.801-67.857 15.693-38.353 19.716-65.103 53.714-76.802 97.611-3.164 11.872-3.641 16.612-3.674 36.501-.042 25.576 1.606 35.319 9.55 56.468 7.861 20.93 16.785 34.395 34.529 52.104 17.748 17.713 31.311 26.7 52.049 34.489 23.423 8.798 50.093 11.254 75.014 6.908z"/></svg>