<?xml version="1.0" encoding="UTF-8"?>
<!DOCTYPE svg PUBLIC "-//W3C//DTD SVG 1.1//EN" "http://www.w3.org/Graphics/SVG/1.1/DTD/svg11.dtd">
<svg height="46" version="1.1" width="28" xmlns="http://www.w3.org/2000/svg">
    <desc style="-webkit-tap-highlight-color: rgba(0, 0, 0, 0);">Created with RaphaГ«l 2.1.2</desc>
    <defs style="-webkit-tap-highlight-color: rgba(0, 0, 0, 0);"></defs>
    <path fill="#0563a3" stroke="none" d="M12.5,46L16.15,39.45A12.5,12.5,0,1,0,8.85,39.45"
          style="-webkit-tap-highlight-color: rgba(0, 0, 0, 0);"></path>
    <circle cx="12.5" cy="27.5" r="9" fill="#ffffff" stroke="none"
            style="-webkit-tap-highlight-color: rgba(0, 0, 0, 0);"></circle>
    <path fill="#ed1c24" stroke="none" d="M13.625,27.6875L16.5625,24.25L13.1875,25.625L7.125,24.3125"
          style="-webkit-tap-highlight-color: rgba(0, 0, 0, 0);"></path>
    <path fill="#005baa" stroke="none" d="M11.0625,27L18.875,30.9375L11.5,29.4375L7.625,31"
          style="-webkit-tap-highlight-color: rgba(0, 0, 0, 0);"></path>
    <circle cx="13.1875" cy="24.0625" r="1.0625" fill="#005baa" stroke="none"
            style="-webkit-tap-highlight-color: rgba(0, 0, 0, 0);"></circle>
    <rect x="0" y="31" width="25" height="9" r="0" rx="0" ry="0" fill="#ed1c24" stroke="none"
          style="-webkit-tap-highlight-color: rgba(0, 0, 0, 0);"></rect>
    <path fill="#ffffff" stroke="none" d="M2,33L4,33L4,34L3,34L3,38L2,38"
          style="-webkit-tap-highlight-color: rgba(0, 0, 0, 0);"></path>
    <path fill="#ffffff" stroke="none" d="M6,33L6,38L7,38L8,35L8,38L9,38L9,33L8,33L7,36L7,33"
          style="-webkit-tap-highlight-color: rgba(0, 0, 0, 0);"></path>
    <path fill="#ffffff" stroke="none" d="M11,33L11,38L12,38L12,34L13,34L13,38L14,38L14,33"
          style="-webkit-tap-highlight-color: rgba(0, 0, 0, 0);"></path>
    <path fill="#ffffff" stroke="none"
          d="M15.666,33L15.666,38L18.666,38L18.666,37L16.666,37L16.666,36L18.666,36L18.666,35L16.666,35L16.666,34L18.666,34L18.666,33"
          style="-webkit-tap-highlight-color: rgba(0, 0, 0, 0);"></path>
    <path fill="#ffffff" stroke="none" d="M20.666,33L22.166,33A1,1,1,1,1,22.166,36L21.666,36L21.666,38L20.666,38"
          style="-webkit-tap-highlight-color: rgba(0, 0, 0, 0);"></path>
    <path fill="#ed1c24" stroke="none" d="M21.666,35L21.666,34L22.166,34A0.5,0.5,0,1,1,22.166,35"
          style="-webkit-tap-highlight-color: rgba(0, 0, 0, 0);"></path>
</svg>