<?xml version="1.0" encoding="UTF-8"?>
<!DOCTYPE svg PUBLIC "-//W3C//DTD SVG 1.1//EN" "http://www.w3.org/Graphics/SVG/1.1/DTD/svg11.dtd">
<!-- Creator: CorelDRAW X8 -->
<svg xmlns="http://www.w3.org/2000/svg" xml:space="preserve" width="101.529mm" height="59.362mm" version="1.1" style="shape-rendering:geometricPrecision; text-rendering:geometricPrecision; image-rendering:optimizeQuality; fill-rule:evenodd; clip-rule:evenodd"
viewBox="0 0 12252 7164"
 xmlns:xlink="http://www.w3.org/1999/xlink">
 <defs>
  <style type="text/css">
   <![CDATA[
    .fil1 {fill:#38AAE9;fill-rule:nonzero}
    .fil0 {fill:#BFBFBF;fill-rule:nonzero}
   ]]>
  </style>
 </defs>
 <g id="Слой_x0020_1">
  <metadata id="CorelCorpID_0Corel-Layer"/>
  <path class="fil0" d="M3188 7164l130 0 5 -13 1 -1 1 -3c2,-3 4,-7 7,-11 5,-9 13,-20 19,-25 5,-3 8,-4 9,-4 0,0 0,0 0,0 1,0 3,0 8,6 6,5 13,17 21,37l5 14 121 0 6 -10 0 -1 2 -2 5 -7c5,-5 12,-12 18,-15 4,-2 7,-3 9,-3 0,0 0,0 0,0 2,0 4,0 8,3 4,4 10,10 15,23l6 12 133 0 5 -14 1 -1 1 -4c1,-2 3,-6 5,-11 5,-8 12,-18 18,-23 4,-3 6,-4 8,-4 0,0 0,0 0,0 1,0 4,0 11,6 6,7 15,19 25,39l5 12 134 0 6 -11 0 0 0 -1 2 -4 9 -10c7,-7 15,-12 22,-12 0,0 0,0 0,0 4,0 8,1 15,5 6,4 14,11 23,24l6 9 115 0 7 -11 0 0 1 -2 5 -7c5,-6 11,-12 17,-15 4,-2 7,-3 10,-3l0 0c3,0 6,0 11,4 5,4 11,11 18,23l7 11 140 0 6 -12 0 -1 2 -4c2,-2 4,-6 7,-11 6,-9 14,-19 22,-24 5,-4 9,-5 12,-5 0,0 0,0 0,0 3,0 7,1 13,7 7,6 15,18 24,37l6 13 110 0 4 -15 1 -1 0 -3 4 -9c3,-7 8,-16 12,-22 3,-4 6,-6 8,-7l0 0 2 0 6 6c6,6 15,18 23,38l6 13 115 0 6 -11 0 -1 2 -4c2,-2 5,-6 8,-11 6,-9 16,-19 25,-24 6,-4 12,-6 16,-6 0,0 0,0 0,0 5,0 10,1 18,8 8,6 17,18 27,37l6 12 122 0 6 -12 0 -1 2 -3c2,-3 4,-7 7,-11 6,-9 15,-19 24,-25 6,-3 10,-5 14,-5 0,0 0,0 0,0 4,0 8,1 16,7 7,6 16,18 25,38l6 12 133 0 4 -15 0 -1 2 -4c1,-2 2,-6 4,-11 4,-8 10,-18 15,-23l5 -3c1,0 3,0 10,6 6,6 15,19 24,39l6 12 128 0 5 -14 0 -1 2 -3c1,-3 3,-7 5,-11 5,-9 12,-18 19,-23 5,-4 9,-5 13,-5 4,0 10,1 20,8 9,7 20,19 34,39l6 10 111 0 5 -15 0 -1 1 -3c1,-3 3,-7 5,-11 5,-8 11,-18 17,-23 5,-3 8,-4 10,-4 3,0 8,1 16,8 9,6 19,18 31,38l6 11 154 0 5 -14 0 -1 1 -4c2,-2 3,-6 6,-11 4,-8 11,-18 17,-23 4,-3 7,-4 8,-4 0,0 0,0 0,0 1,0 4,0 11,6 7,7 15,19 25,39l6 12 135 0 5 -14 0 -1 2 -2 4 -10c4,-7 9,-16 14,-23 3,-3 5,-5 7,-6l2 2c4,6 10,18 15,38l4 16 114 0 6 -12 1 -1 1 -3c2,-3 4,-7 7,-12 6,-8 14,-19 22,-24 6,-4 10,-5 13,-5 0,0 0,0 1,0 3,0 7,1 14,7 7,6 16,18 25,38l6 12 119 0 6 -12 0 -1 2 -4c1,-2 4,-6 7,-11 5,-9 14,-19 22,-24 5,-4 9,-5 12,-5 0,0 0,0 0,0 3,0 6,1 13,7 6,6 15,18 24,37l6 13 122 0 6 -11 0 -1 2 -4c2,-3 5,-7 8,-11 6,-9 15,-20 23,-25 5,-4 9,-5 11,-5 1,0 1,0 1,0 2,0 3,0 9,5 5,6 12,18 18,37l5 15 132 0 6 -12 0 -1 3 -5c2,-4 5,-9 9,-14 8,-11 19,-23 24,-24l2 -1 0 0 4 4c3,5 9,17 14,36l4 17 136 0 4 -16 1 -1 1 -3c1,-3 2,-7 4,-11 3,-9 9,-19 14,-23l5 -3c0,0 3,0 10,6 6,7 15,19 26,39l5 12 141 0 6 -12 1 -1 2 -3c1,-3 4,-7 7,-12 6,-9 15,-19 22,-24 5,-4 8,-5 9,-5 0,0 0,0 0,0 1,0 1,-1 6,5 5,5 11,17 16,36l4 16 145 0 4 -15 1 -1 1 -5c2,-4 4,-9 7,-14 5,-11 14,-21 17,-22l1 0 2 1 6 5c6,6 14,18 23,38l5 13 131 0 5 -14 1 -1 1 -3c1,-3 3,-7 5,-11 5,-9 12,-19 19,-23 4,-4 8,-5 11,-5 3,0 8,1 17,8 8,6 19,18 31,38l6 11 119 0 5 -14 0 -1 1 -3c2,-3 3,-7 6,-11 5,-9 12,-18 19,-23 4,-4 8,-5 12,-5 4,0 10,1 19,8 9,7 20,19 33,39l6 10 126 0 6 -11 1 -1 2 -3c2,-3 4,-7 8,-12 6,-9 16,-19 25,-25 5,-3 10,-5 14,-5 0,0 0,0 0,0 3,0 6,1 13,6 6,6 14,18 22,37l5 14 133 0 6 -10 0 0 1 -1 5 -6c4,-5 9,-11 16,-17 13,-13 30,-23 42,-23 1,0 1,0 1,0 6,0 12,2 20,8 8,6 17,17 27,37l5 12 94 0 5 -12 1 -1 1 -2 4 -6c3,-6 9,-12 13,-15l8 -2c1,0 4,0 9,4 5,3 11,11 19,23l6 11 133 0 6 -13 0 -1 2 -3c1,-3 3,-7 6,-11 5,-9 13,-19 20,-24 5,-4 8,-5 11,-5 0,0 0,0 0,0 2,0 5,0 11,6 6,6 15,18 23,38l6 13 116 0 5 -15 0 -1 1 -3c1,-3 3,-6 5,-11 5,-8 11,-17 18,-22 5,-4 9,-5 13,-5 5,0 11,1 21,8 10,7 23,20 37,40l7 9 106 0 6 -13 0 -1 2 -3c1,-3 3,-7 6,-11 5,-9 13,-19 21,-24 5,-4 9,-5 12,-5 0,0 0,0 1,0 3,0 7,1 15,7 7,7 17,19 27,38l6 12 106 0 4 -16 0 -1 1 -3c1,-2 3,-6 5,-10 4,-9 10,-18 16,-23 4,-3 7,-4 11,-4 4,0 11,1 20,8 10,7 23,20 37,40l6 9 125 0 6 -10 0 0 1 -1 5 -6c3,-5 9,-11 16,-17 14,-13 32,-23 48,-23 0,0 1,0 1,0 8,0 17,2 27,9 11,7 23,18 35,38l6 10 89 0 5 -16 0 -1 1 -4c2,-4 4,-9 6,-14 5,-11 14,-24 22,-31 6,-4 11,-6 17,-6 0,0 0,0 0,0 8,0 22,4 41,23l6 6 121 0 1 -20 0 -1 1 -4c0,-4 1,-9 2,-14 3,-11 8,-24 13,-29l9 -5c0,0 0,0 0,0 3,0 8,2 17,7 8,5 20,15 33,30l7 7 115 1 6 -13 0 0 0 -1 1 -2 5 -9c5,-8 12,-16 18,-20 5,-3 8,-4 13,-4 0,0 0,0 0,0 7,0 20,4 39,27l7 8 138 0 4 -16 1 -1 2 -3c3,-3 5,-6 16,-6 0,0 0,0 0,0 11,0 31,5 62,24l5 4 98 1 5 -14 0 0 1 -2 3 -7c4,-5 8,-11 13,-14 4,-2 7,-3 11,-3 0,0 1,0 1,0 8,0 24,5 48,30l6 7 122 0 5 -15 0 0 1 -3c1,-3 3,-7 5,-11 4,-8 11,-17 18,-21 4,-3 8,-5 12,-5 0,0 0,0 0,0 7,0 18,4 35,22l7 8 114 -11 6 -5 0 0 0 0 1 -1 6 -4c5,-2 10,-4 13,-4 0,0 0,0 0,0l4 1c1,2 5,9 7,24l3 18 19 0c0,0 400,-6 720,-85 107,-27 204,-62 277,-108l8 -6 1 -9c0,-1 84,-653 84,-1284l0 -7c0,-129 -3,-257 -12,-379 -1,-22 -46,-1112 -348,-2232 -1,-3 -9,-34 -22,-86 -14,-54 -33,-131 -56,-222 -47,-182 -107,-419 -164,-644 2,-8 4,-23 4,-43 0,-30 -5,-70 -29,-105 -24,-35 -68,-61 -133,-61 -1,0 -1,0 -2,0 -10,0 -22,1 -34,2l-2 1 -2 0 -5 2c-4,1 -10,2 -17,4 -15,4 -37,9 -65,14 -56,10 -136,20 -230,20 0,0 0,0 0,0 -158,0 -356,-28 -551,-131 -31,-22 -667,-476 -1147,-747 -157,-89 -296,-158 -395,-187 -8,-42 -39,-174 -153,-317 -139,-174 -400,-365 -883,-438l0 0c-1,0 -153,-23 -300,-24l-21 0c-41,0 -81,3 -117,8 -39,6 -74,15 -100,31 -17,10 -31,25 -38,44 -3,7 -15,33 -15,65 0,11 2,24 7,37 -30,23 -96,79 -162,174 -85,122 -170,307 -176,561 -15,-4 -33,-7 -54,-7 -17,0 -35,2 -53,9 -18,7 -36,19 -50,37l0 0c-12,15 -321,398 -321,874 0,20 0,41 1,62 -21,7 -57,21 -94,50 -55,42 -110,117 -111,238l-20 27c-3,-4 -7,-8 -12,-11 -9,-6 -21,-10 -34,-10 0,0 0,0 -1,0 -36,1 -79,23 -148,85 -5,3 -29,24 -54,58 -11,16 -22,35 -32,57l-3 -17 -7 44c-5,17 -9,36 -11,55 -25,6 -73,19 -123,53 -68,46 -140,132 -154,281 -16,2 -40,5 -68,12 -49,11 -109,29 -157,63 -29,20 -54,46 -68,79 -23,7 -78,25 -141,62 -80,47 -174,125 -234,250 -12,-2 -30,-3 -53,-3 -53,0 -130,8 -208,45 -75,35 -151,97 -207,202 -12,-3 -31,-5 -55,-5 0,0 0,0 0,0 -1,0 -1,0 -1,0 -93,0 -269,34 -516,225 -15,6 -87,35 -172,73 -95,44 -205,100 -270,154 -119,99 -362,231 -593,292 -7,1 -36,4 -70,15 -40,12 -89,34 -123,74 -21,23 -35,54 -38,90 -8,3 -20,7 -35,12 -31,11 -76,27 -134,46 -115,38 -278,90 -471,145 -384,111 -886,236 -1354,292 -16,0 -140,3 -271,104 -129,99 -262,294 -299,666 -21,6 -57,22 -92,64 -52,61 -101,174 -101,385 -13,24 -64,126 -72,255l0 70c5,68 24,140 68,208 51,80 137,153 269,209 13,6 436,194 1326,224l14 1 6 -12 1 -1 1 -3c1,-2 4,-6 6,-10 6,-7 14,-16 21,-21 5,-3 10,-5 14,-5 4,0 9,2 17,8 9,7 19,19 30,40l6 11 112 0 6 -11 0 0 1 -1 2 -3 8 -10c7,-7 16,-13 25,-13 0,0 0,0 0,0 9,0 23,5 44,30l6 8 123 0 6 -11 0 0 1 -2 5 -7c4,-5 10,-12 16,-15l9 -3c3,0 6,1 11,5 6,3 13,11 21,23l6 10 109 0 6 -11 0 0 1 -2 5 -7c4,-6 10,-12 15,-15l8 -3c2,0 4,1 8,4 4,3 11,10 17,23l6 11 114 0 7 -7 0 0 1 -1 4 -4c3,-3 7,-7 13,-11 11,-8 24,-15 33,-15 1,0 1,0 1,0 5,0 8,1 12,4 5,4 10,10 16,22l5 12 124 0 7 -9 0 0 0 -1 3 -3c3,-3 7,-7 11,-11 10,-7 22,-14 34,-14 0,0 0,0 0,0 12,1 28,5 48,30l7 8 105 0 6 -9 1 0 1 -2 4 -5c5,-5 10,-12 17,-18 13,-13 31,-23 41,-23 0,0 1,0 1,0 5,1 9,2 15,7 7,6 14,17 21,36l5 14 102 0 6 -8 0 0 1 -1 2 -2 8 -8c6,-5 14,-9 19,-9 0,0 0,0 0,0 3,1 6,1 12,8 6,7 14,21 21,47l4 16zm103 -43l-71 0c-6,-21 -14,-36 -24,-48 -12,-14 -29,-22 -44,-22 0,0 -1,0 -1,0 -20,0 -35,10 -46,18 -4,4 -7,7 -10,10l-53 0c-7,-17 -15,-30 -26,-39 -12,-12 -29,-18 -43,-18 -1,0 -1,0 -1,0 -31,0 -54,18 -71,34 -9,8 -16,17 -21,23l-64 0c-24,-26 -50,-38 -74,-38 0,0 0,0 -1,0 -26,0 -47,12 -60,23 -7,6 -12,11 -15,15l-77 0c-6,-11 -14,-20 -22,-26 -12,-8 -25,-12 -37,-12 -1,0 -1,0 -1,0 -25,0 -45,12 -59,23 -8,5 -14,11 -18,15l-71 0c-6,-11 -14,-19 -21,-25 -11,-9 -23,-13 -35,-13 0,0 0,0 0,0 -12,0 -22,4 -30,9 -8,5 -15,11 -20,17 -4,4 -7,8 -10,12l-61 0c-8,-11 -16,-20 -25,-26 -11,-8 -24,-12 -36,-12 0,0 0,0 0,0 -12,0 -22,4 -31,9 -8,5 -15,11 -20,16 -4,5 -8,9 -10,13l-79 0c-23,-26 -47,-38 -70,-38 0,0 0,0 0,0 -25,0 -44,13 -55,25 -4,4 -8,9 -11,13l-63 0c-11,-18 -22,-32 -33,-42 -14,-11 -30,-17 -45,-17 0,0 0,0 0,0 -15,0 -27,5 -37,11 -10,7 -18,14 -24,22 -5,6 -10,12 -13,17 -832,-29 -1246,-197 -1293,-217l-4 -2 0 0 -1 -1c-126,-53 -204,-121 -250,-193 -47,-72 -63,-148 -63,-220 0,-80 21,-154 40,-205 3,0 7,0 13,0 0,0 0,0 0,0 57,0 230,24 612,237 22,16 337,238 957,279 539,36 1583,39 1891,39 56,0 87,0 87,0l0 0 6534 -59c2,0 11,0 27,0 100,0 467,-3 875,-39 391,-34 820,-98 1090,-222 0,0 0,1 0,1l-4 2 4 -2c-10,115 -20,211 -28,279 -5,50 -10,85 -12,101 -116,72 -313,117 -498,143 -190,27 -368,35 -437,38 -5,0 -10,0 -14,0 -3,-10 -7,-19 -13,-27 -9,-11 -23,-16 -35,-16 0,0 0,0 -1,0 -14,0 -26,6 -34,10 -3,2 -6,4 -8,6l-81 7c-19,-18 -39,-27 -59,-27 0,0 0,0 0,0 -14,0 -27,5 -37,12 -10,7 -17,16 -23,24 -4,6 -8,13 -10,18l-75 0c-26,-25 -50,-37 -73,-37 0,0 0,0 0,0 -13,0 -24,4 -33,10 -9,5 -16,12 -21,19 -3,4 -5,8 -7,11l-57 -1c-33,-20 -59,-28 -80,-28 0,0 -1,0 -1,0 -21,0 -38,10 -47,20 -1,2 -3,4 -4,6l-90 0c-21,-23 -43,-34 -65,-34 0,0 0,0 0,0 -14,0 -27,4 -36,11 -10,6 -17,14 -23,21 -5,6 -8,11 -11,16l-69 -1c-13,-13 -25,-23 -37,-30 -13,-8 -26,-13 -39,-13 -1,0 -1,0 -1,0 -17,0 -31,8 -39,18 -10,10 -15,22 -19,32 -2,8 -4,16 -6,23l-65 0c-21,-20 -43,-30 -64,-30 0,0 0,0 0,0 -17,0 -32,7 -43,16 -12,9 -20,20 -26,30 -6,10 -10,19 -13,26l-35 0c-13,-18 -26,-31 -40,-41 -17,-11 -34,-16 -51,-16 0,0 0,0 0,0 -33,1 -59,18 -77,34 -10,9 -17,17 -22,23l-81 0c-14,-18 -27,-31 -40,-40 -15,-11 -30,-17 -45,-17 0,0 0,0 0,0 0,0 0,0 0,0 -15,0 -28,6 -37,14 -10,7 -17,16 -22,25 -4,6 -7,13 -9,18l-50 0c-9,-17 -20,-30 -30,-39 -13,-11 -28,-18 -43,-18 0,0 0,0 0,0 -15,0 -28,6 -38,13 -10,7 -17,16 -24,24 -5,7 -10,14 -13,20l-58 0c-14,-18 -27,-31 -40,-40 -15,-11 -31,-17 -46,-17 0,0 0,0 0,0 0,0 0,0 0,0 -15,0 -28,6 -38,13 -10,8 -17,17 -23,25 -5,7 -8,14 -11,19l-59 0c-8,-16 -17,-29 -26,-38 -12,-12 -26,-19 -41,-19 0,0 0,0 0,0 -15,0 -27,6 -36,14 -10,7 -17,15 -23,23 -5,8 -10,15 -13,20l-82 0c-8,-10 -15,-19 -24,-25 -10,-8 -22,-13 -34,-13 0,0 0,0 0,0 -12,0 -23,4 -31,10 -8,5 -14,11 -19,17 -3,4 -6,8 -8,11l-41 0c-10,-17 -20,-30 -32,-40 -14,-11 -31,-17 -46,-17 -1,0 -1,0 -1,0 -31,1 -55,19 -72,35 -9,8 -16,16 -21,22l-83 0c-7,-16 -16,-29 -26,-38 -12,-12 -27,-19 -42,-19 0,0 0,0 0,0 -15,0 -28,6 -38,13 -10,7 -19,15 -26,23 -7,8 -12,15 -16,21l-79 0c-12,-17 -24,-30 -36,-40 -15,-11 -30,-17 -45,-17 0,0 0,0 0,0 0,0 0,0 0,0 -15,0 -28,6 -38,13 -10,8 -17,17 -23,25 -5,7 -8,14 -11,19l-66 0c-12,-17 -23,-30 -34,-39 -14,-12 -29,-18 -44,-18 0,0 0,0 0,0 0,0 0,0 0,0 -15,0 -28,6 -37,14 -10,7 -17,16 -23,24 -4,7 -8,14 -11,19l-74 0c-8,-16 -16,-28 -25,-38 -11,-11 -24,-19 -39,-19 0,0 0,0 0,0 -15,0 -26,8 -34,15 -8,8 -14,16 -19,24 -3,7 -6,13 -9,18l-82 0c-5,-15 -11,-27 -19,-36 -9,-13 -24,-21 -38,-21 0,0 -1,0 -1,0 -14,1 -26,7 -35,14 -9,7 -16,15 -23,23 -6,7 -10,14 -14,20l-90 0c-9,-16 -18,-29 -28,-38 -11,-11 -25,-19 -39,-19 0,0 0,0 0,0 -15,0 -27,8 -34,15 -8,8 -14,17 -19,25 -3,6 -5,12 -7,17l-72 0c-5,-15 -10,-26 -17,-36 -9,-12 -23,-21 -37,-21 -1,0 -1,0 -1,0 -14,1 -25,7 -34,14 -9,7 -16,15 -22,23 -6,7 -10,15 -14,20l-76 0c-6,-16 -13,-28 -22,-37 -11,-12 -25,-20 -40,-20 0,0 0,0 0,0 -15,0 -27,6 -36,13 -10,7 -18,15 -25,23 -6,8 -11,15 -15,21l-70 0c-9,-16 -18,-29 -28,-38 -12,-12 -27,-19 -42,-19 0,0 0,0 0,0 -15,0 -27,6 -37,13 -10,7 -18,16 -24,24 -6,7 -11,14 -14,20l-66 0c-10,-17 -19,-29 -30,-39 -12,-11 -27,-18 -42,-18 0,0 0,0 0,0 -15,0 -28,6 -38,13 -10,7 -18,16 -25,24 -5,7 -10,14 -14,20l-55 0c-4,-10 -7,-18 -11,-25 -6,-11 -12,-20 -22,-25 -6,-4 -13,-7 -20,-7 0,0 0,0 -1,0 -14,1 -25,8 -32,15 -8,7 -14,16 -19,24 -4,7 -7,13 -10,18l-80 0c-9,-16 -18,-29 -27,-38 -12,-12 -26,-19 -41,-19 0,0 0,0 0,0 -15,0 -26,7 -35,14 -9,8 -16,16 -21,25 -4,6 -8,13 -10,18l-101 0c-11,-17 -22,-30 -34,-39 -13,-11 -28,-18 -42,-18 0,0 0,0 -1,0 0,0 0,0 0,0 -14,0 -27,6 -36,14 -9,7 -16,16 -22,25 -4,6 -7,13 -10,18l-59 0c-12,-18 -24,-31 -37,-40 -14,-11 -30,-17 -45,-17 0,0 0,0 0,0 0,0 0,0 0,0 -15,0 -28,6 -38,13 -10,8 -17,16 -23,25 -5,7 -9,14 -12,19l-73 0c-8,-16 -17,-29 -26,-38 -11,-11 -25,-19 -40,-19 0,0 0,0 0,0 -14,0 -26,7 -34,15 -8,8 -14,16 -19,25 -3,6 -6,12 -8,17l-76 0c-9,-17 -19,-29 -29,-39 -13,-11 -29,-18 -43,-18 0,0 -1,0 -1,0 -15,0 -27,6 -38,13 -10,7 -18,15 -25,23 -7,8 -12,15 -15,21l-71 0c-10,-17 -21,-30 -32,-39 -14,-12 -29,-18 -44,-18 0,0 -1,0 -1,0 -15,0 -28,6 -39,13 -11,6 -19,15 -27,23 -7,8 -12,15 -16,21l-63 0c-8,-16 -16,-28 -25,-38 -10,-11 -24,-19 -38,-19 -1,0 -1,0 -1,0 -14,0 -25,8 -33,15 -8,8 -14,17 -19,25 -3,6 -6,12 -8,17l-52 0c-9,-16 -18,-29 -28,-38 -12,-12 -27,-19 -41,-19 0,0 -1,0 -1,0 -14,0 -27,6 -37,13 -10,7 -17,16 -24,24 -6,7 -10,14 -14,20l-90 0c-8,-11 -16,-19 -24,-25 -11,-8 -24,-13 -36,-13 0,0 0,0 0,0 -12,0 -23,4 -31,9 -9,5 -16,11 -21,17 -5,4 -8,8 -11,12l-70 0c-9,-11 -19,-20 -28,-26 -12,-8 -25,-12 -38,-12 0,0 0,0 0,0 -25,1 -42,14 -53,26 -4,4 -8,8 -11,12l-82 0c-9,-16 -18,-29 -28,-38 -11,-12 -26,-19 -40,-19 0,0 0,0 0,0 -15,0 -27,7 -36,14 -8,8 -15,16 -20,25 -5,6 -8,13 -11,18l-78 0c-6,-10 -12,-18 -20,-25 -10,-8 -23,-13 -35,-13 0,0 0,0 0,0 -12,0 -22,4 -30,9 -9,5 -16,11 -21,16 -5,5 -9,9 -12,13l-69 0c-7,-16 -15,-28 -23,-37 -11,-12 -25,-20 -40,-20 0,0 0,0 0,0 -15,0 -26,7 -35,14 -9,7 -16,16 -22,24 -5,7 -9,14 -12,19zm6884 -50l0 0zm429 -12l0 0zm-429 -374l-6534 59c0,0 -32,0 -87,0 -1,0 -2,0 -2,0 -310,0 -1351,-3 -1887,-38 -611,-41 -918,-260 -934,-271l-1 -1 -1 -1 -1 -1c-379,-210 -558,-241 -630,-243 6,-13 11,-22 13,-25l0 -1 3 -5 0 -6 0 -1c0,-81 7,-146 19,-198 13,12 33,26 60,39 79,39 227,82 509,102 563,41 2647,138 2647,138l1 0 0 0c1,0 1289,-25 3170,-230 1667,-181 2886,-410 4895,-410 252,0 516,4 795,11 -1,291 -20,585 -39,815 -257,126 -698,194 -1098,229 -406,36 -772,38 -871,38 -17,0 -27,0 -27,0l0 0zm2026 -234l0 0 0 0zm-786 -902c-2013,0 -3235,230 -4900,411 -1644,179 -2835,220 -3107,228 -34,1 -54,1 -58,1 -5,0 -36,-2 -90,-4 -58,-3 -141,-7 -244,-12 -204,-9 -482,-23 -777,-37 -592,-29 -1253,-64 -1534,-84 -393,-28 -515,-101 -548,-135 -6,-6 -9,-11 -11,-14 16,-50 36,-84 55,-109 29,-36 58,-50 74,-54 0,0 1,0 1,1 9,9 23,18 48,29 50,21 144,48 328,77 368,57 1096,120 2544,145l1 0 0 0c0,0 601,-10 1292,-41 691,-30 1471,-81 1838,-163 8,-2 63,-8 156,-20 101,-12 248,-30 429,-51 362,-42 863,-98 1417,-155 1109,-112 2431,-225 3284,-225 0,0 0,0 1,0 240,0 443,9 592,29 3,64 4,129 4,195 -279,-8 -543,-12 -795,-12zm198 -254c-1712,0 -5292,450 -5292,450l-1 1 -1 0c-314,71 -953,119 -1570,150 -617,32 -1214,46 -1448,52 -63,1 -100,1 -104,2 -986,-18 -1637,-52 -2068,-90 -430,-39 -640,-81 -740,-112 -55,-17 -77,-31 -82,-37 35,-370 163,-553 283,-646 121,-92 235,-95 245,-95 0,0 0,0 1,0l0 0 1 0 2 0c867,-104 1843,-440 1997,-494 6,15 18,37 41,58 41,39 116,75 246,75 0,0 0,0 1,0 106,0 250,-24 446,-89 7,-2 50,-11 116,-26 72,-16 172,-37 282,-59 221,-45 484,-93 651,-108 168,-16 274,-18 387,-54 114,-35 231,-103 421,-247 217,-164 397,-197 510,-197l0 0c75,0 119,15 123,16l0 0 1 0 1 1c1,0 15,4 39,4 0,0 0,0 0,0 78,0 261,-41 505,-349 134,-169 300,-258 445,-306 145,-48 270,-54 320,-54 0,0 0,0 0,0 8,0 14,0 18,0 4,0 6,0 6,0l0 0 0 0c0,0 14,1 39,1 60,0 182,-5 316,-43 133,-38 279,-108 385,-240 67,-84 118,-192 138,-331l698 274c14,8 128,73 290,137 173,69 401,138 622,138 100,0 198,-14 290,-49l0 0 0 -1c1,0 95,-39 204,-122 109,-84 235,-212 298,-391l0 0c1,-1 7,-19 7,-48 0,-44 -15,-116 -86,-193 -71,-78 -195,-161 -414,-236l0 0 0 0 -1746 -573c-1,-26 -6,-78 -27,-138 -26,-75 -78,-163 -179,-222 -46,-27 -103,-47 -172,-57 138,-48 346,-102 660,-159l1 0 1 0 0 0 0 0 2 -1c2,0 6,-1 10,-2 9,-1 23,-2 42,-2 49,0 131,9 241,55l0 0 1 1 5 1c4,1 9,3 16,6 13,5 34,13 60,25 53,23 131,59 230,113 196,109 473,288 798,570 9,10 104,109 245,208 148,104 348,210 558,212 14,1 162,18 325,18 72,0 147,-3 214,-13 56,-8 107,-19 147,-38 113,447 237,931 237,931l0 1 0 0c266,985 332,1949 344,2174 2,32 2,49 2,49l0 0 0 0c3,42 6,84 8,127 -153,-20 -354,-28 -592,-28zm-11479 607l0 0zm0 0l0 0zm12085 -707l0 0zm-6283 -1409c-121,0 -311,37 -535,206 -188,143 -301,207 -407,241 -106,33 -210,36 -379,51 -340,31 -1055,195 -1055,195l-1 0 -1 0c-194,65 -334,87 -434,87 0,0 0,0 0,0 -120,0 -182,-31 -215,-61 -30,-26 -37,-52 -38,-59 0,-30 10,-52 25,-72 15,-19 37,-35 60,-46 46,-23 97,-31 108,-32l2 0 2 0 1 -1c107,-28 215,-70 314,-117 0,10 -1,21 -1,30 0,97 20,158 51,196 30,38 71,49 105,49 0,0 0,0 1,0 37,0 66,-12 73,-15 26,-7 48,-22 64,-41 17,-19 30,-42 39,-68 17,-51 23,-112 23,-170 0,-8 0,-15 0,-23 0,0 0,-1 1,-1 4,-5 12,-11 21,-19 18,-17 44,-39 76,-64 58,-44 133,-96 213,-134 6,89 33,140 63,170 32,30 64,34 74,34 8,2 16,2 24,2 1,0 1,0 1,0 38,0 70,-17 91,-42 22,-26 35,-58 45,-90 19,-66 20,-135 21,-162 0,-4 -1,-7 -1,-8 13,-72 44,-110 81,-134 38,-23 84,-30 122,-30 0,0 0,0 1,0 0,0 0,0 0,0 25,0 46,3 61,5 -7,45 -12,97 -12,149 0,60 6,120 27,171 21,52 57,95 114,113l1 0 2 0c1,1 13,3 31,3 30,0 78,-6 120,-41 42,-34 73,-96 73,-197 0,-84 -6,-163 -6,-234 0,-30 1,-59 4,-85 14,-7 39,-20 67,-38 27,-16 56,-36 80,-59 0,0 0,1 0,2 6,59 17,125 38,180 14,36 33,67 60,87 16,12 35,18 56,18 0,0 0,0 0,0 25,0 50,-8 76,-25 8,0 18,-3 29,-10 11,-9 21,-22 31,-43 18,-42 32,-113 33,-245 0,-112 5,-177 14,-222 1,-2 1,-5 2,-7 37,14 117,38 210,38 57,0 119,-9 179,-36 15,61 33,123 54,179 29,73 64,137 109,176 26,22 57,36 91,36 0,0 0,0 1,0 0,0 0,0 0,0 28,0 57,-9 86,-28l0 0 0 0c2,-1 21,-15 40,-45 19,-30 37,-77 37,-145 0,-47 -9,-105 -33,-174l-1 -3 -2 -2c0,-1 -2,-3 -5,-9 -4,-5 -9,-13 -16,-23 -13,-19 -30,-47 -47,-80 -16,-28 -31,-59 -44,-91l0 -2c0,-16 4,-74 46,-181 33,76 75,153 128,213 52,60 115,103 191,108l3 0 4 -1c1,-1 34,-10 67,-36 34,-26 69,-72 69,-140 0,-45 -15,-98 -52,-162l-1 0 0 -1c0,0 -3,-4 -8,-12 -5,-8 -12,-20 -21,-34 -18,-30 -42,-72 -65,-121 -8,-16 -16,-33 -23,-51 1,-2 3,-6 5,-10 7,-11 18,-27 33,-42 31,-30 78,-61 153,-61 13,0 27,1 42,3 88,93 192,222 308,398l1 0 0 0c1,1 15,22 43,43 28,21 70,43 124,43l0 0c0,0 0,0 0,0 33,0 70,-8 110,-28l1 0 1 -1c2,-2 14,-10 25,-28 12,-17 23,-45 23,-82 0,-56 -23,-132 -97,-235 27,8 60,14 94,14 0,0 0,0 0,0 36,0 75,-7 109,-29 11,19 31,48 59,77 47,48 116,99 207,99 25,0 52,-4 80,-13 3,0 12,-2 22,-7 14,-6 30,-16 43,-34 8,-12 13,-27 13,-45 0,-16 -4,-33 -12,-52 -6,-15 -8,-25 -8,-31 11,3 27,5 45,5 0,0 0,0 0,0 26,0 56,-5 86,-22 26,-15 51,-39 70,-75l183 72c-18,137 -66,241 -130,321 -66,81 -149,138 -235,178 -171,79 -355,89 -432,89 0,0 -1,0 -1,0 -12,0 -21,0 -27,-1 -7,0 -10,0 -10,0l0 0c0,0 -9,-1 -26,-1 -53,0 -182,6 -333,56 -152,50 -325,144 -466,321 -240,301 -410,332 -471,332 -16,0 -25,-2 -27,-2 -8,-3 -57,-19 -137,-19 0,0 -1,0 -1,0zm-3073 660l0 0zm0 0l0 0zm819 -453c1,8 3,17 4,27 5,37 9,87 9,139 0,42 -3,84 -11,121 -8,37 -21,69 -39,89 -13,14 -27,23 -45,28l-2 1 -2 1 0 0 0 0 -4 1c-2,1 -7,3 -12,4 -11,4 -26,7 -41,7 0,0 0,0 0,0 -26,-1 -51,-7 -73,-34 -22,-27 -41,-78 -41,-169 0,-16 0,-33 2,-52 103,-53 192,-110 253,-161 1,-1 2,-1 2,-2zm889 -378c-44,0 -97,8 -145,37 -48,30 -87,82 -101,165l0 2 0 2c0,0 0,3 0,9 0,18 -1,60 -9,105 -7,45 -23,92 -46,119 -16,18 -34,28 -60,28 -5,0 -12,-1 -18,-2l-2 0 -2 0 0 0 -1 0 -3 -1c-2,0 -6,-1 -10,-2 -9,-3 -20,-8 -32,-20 -24,-23 -52,-72 -52,-180 0,-28 2,-60 6,-97 12,-4 18,-6 18,-6l3 -2 2 -2c243,-188 410,-217 493,-218 17,0 30,2 40,3 -3,16 -8,38 -14,66 -16,-3 -40,-6 -67,-6zm-523 257c-135,59 -257,159 -313,209 -4,-52 -11,-95 -14,-116 41,-28 95,-57 148,-84 67,-33 136,-63 183,-82 -3,26 -4,51 -4,73zm720 203l0 0zm304 -765c-46,31 -77,68 -97,111 -29,61 -36,131 -36,206 0,73 7,152 7,234 -1,93 -28,139 -58,165 -31,25 -68,30 -93,30 0,0 0,0 0,0 0,0 0,0 0,0 -11,0 -19,-1 -22,-1 -42,-14 -69,-45 -86,-88 -18,-43 -25,-99 -25,-155 0,-116 28,-234 35,-262 1,-1 1,-2 1,-3 53,-104 124,-163 194,-196 66,-31 132,-40 180,-41zm996 515l0 0zm5 -16l0 0zm0 0l0 0zm-719 -146l-8 5c-24,16 -44,22 -58,22 0,0 0,0 -1,0 -12,0 -21,-4 -31,-10 -10,-7 -19,-18 -28,-32 -17,-28 -30,-69 -39,-113 -18,-89 -20,-188 -20,-225 0,-5 0,-9 0,-11 51,-113 133,-186 206,-232 46,-28 88,-46 116,-57 -7,19 -14,36 -21,51 -11,24 -21,46 -30,73 -17,54 -27,125 -27,275 0,96 -8,158 -18,197 -11,38 -23,52 -29,56 -2,2 -4,3 -4,3l-8 -2zm825 -153c-24,15 -45,21 -63,21 -20,0 -38,-7 -56,-20 -19,-14 -36,-34 -53,-60 -33,-51 -61,-124 -84,-201 -45,-155 -68,-328 -76,-397 -2,-16 -3,-26 -3,-29 10,-142 71,-217 131,-261 38,-27 76,-40 101,-47 -8,53 -21,167 -21,271 0,22 0,43 2,64 5,80 44,166 80,233 32,59 62,103 70,114 21,64 29,116 29,157 0,112 -54,152 -57,155zm-1050 -125c-17,25 -51,52 -83,74 -18,11 -36,22 -50,30 4,-18 10,-34 17,-50 21,-44 55,-82 114,-112 0,16 1,36 2,58zm40 17l0 0 0 0zm561 -229c-17,2 -33,3 -48,3 0,0 -1,0 -1,0 -88,0 -165,-25 -198,-37 7,-21 16,-39 26,-61 10,-22 21,-48 33,-83l1 0 4 -12c7,-23 23,-44 45,-61 22,-18 50,-32 79,-42 51,-20 104,-29 133,-33 1,13 3,30 6,52 -69,81 -89,157 -88,212 0,25 3,46 8,62zm156 -3l0 0 0 0zm-35 -30c-26,12 -52,21 -79,27 -4,-13 -8,-32 -8,-56 0,-39 11,-92 54,-153 8,52 19,116 33,182zm699 -346c35,59 46,105 46,140 0,50 -22,81 -47,102 -22,19 -46,29 -55,32 -51,-4 -97,-31 -139,-73 -43,-44 -81,-103 -113,-166 -63,-125 -101,-264 -114,-320 -3,-11 -5,-18 -6,-22 1,-50 20,-92 42,-124 21,-32 45,-52 49,-56l1 0 0 -1 1 0c64,-59 103,-74 119,-74 1,0 1,0 1,0 6,0 9,1 11,2l5 6c3,4 4,10 5,12 -1,5 -1,9 -1,13 1,125 50,256 98,357 46,96 92,165 97,172zm3607 194c-85,33 -178,46 -274,46 0,0 0,0 -1,0 -372,0 -777,-206 -871,-258 -14,-7 -21,-11 -21,-11l-1 -1 -1178 -463 325 -891 2032 668 0 0c0,0 0,0 1,0l0 0 0 0c214,72 332,153 396,223 64,71 74,130 75,165 0,20 -4,32 -5,34l0 0 0 0 0 0c-55,158 -164,275 -264,355 -100,80 -191,123 -210,132l-4 1zm-4611 -4l0 0c0,0 0,0 0,0zm6325 -17l0 0zm-4604 -105c-34,16 -63,22 -89,22 -41,0 -73,-16 -96,-32 -22,-16 -35,-33 -36,-35 -317,-477 -544,-612 -602,-640 4,-101 47,-159 91,-195 30,-25 61,-38 80,-45 4,5 9,11 14,17 13,16 31,35 52,58 44,46 103,106 166,171 127,130 272,280 343,373 84,111 105,185 105,232 0,50 -23,70 -28,74zm-1113 -127c-26,59 -41,106 -51,143 -2,-10 -3,-20 -4,-30 -1,-19 -2,-40 -2,-61 0,-63 6,-132 11,-186 8,24 17,52 27,81 6,17 12,35 19,53zm874 94l0 0zm16 -11l0 0zm0 0l0 0zm762 -293c-1,2 -1,5 -1,7 0,13 4,29 12,48 6,15 8,26 8,35 0,9 -2,15 -5,21 -4,5 -8,10 -14,13 -10,7 -23,11 -25,11l0 0 -2 0 -1 1c-24,8 -47,11 -68,11 0,0 0,0 0,0 -69,0 -126,-37 -168,-78 -42,-41 -67,-86 -72,-95l-1 -2 -13 -24 -1 1c-25,-42 -86,-134 -179,-227 -125,-125 -310,-252 -546,-252 -2,0 -4,0 -6,0 -20,-20 -36,-39 -49,-53 106,24 251,69 394,118 116,39 231,80 326,115 -8,18 -16,46 -16,79 0,50 20,113 89,164 64,48 168,88 338,107zm-384 -23c-25,16 -56,22 -87,22 0,0 -1,0 -1,0 -60,0 -122,-24 -141,-33 -51,-60 -119,-134 -191,-210 -82,-85 -169,-173 -236,-242 189,11 344,109 457,215 107,101 176,208 199,248zm-764 -104c-86,0 -145,37 -181,73 -11,11 -21,23 -28,33 -29,-77 -51,-161 -51,-239 0,-2 0,-4 0,-6l32 -42c6,3 15,8 25,14 28,17 69,45 121,90 25,21 52,47 82,77zm1351 26c-15,27 -33,44 -51,54 -22,13 -45,17 -65,17 0,0 0,0 0,0 -25,0 -44,-6 -48,-8l0 0 -8 -3 -3 1c-179,-17 -283,-58 -341,-101 -58,-44 -71,-90 -71,-130 -1,-26 7,-50 12,-64 27,10 52,19 75,27 11,5 22,9 31,13 24,69 62,115 104,143 43,28 90,36 133,36 0,0 0,0 0,0 60,0 111,-17 130,-25l102 40zm-166 -65c-19,4 -42,8 -66,8 0,0 0,0 0,0 -37,0 -75,-8 -110,-30 -27,-18 -52,-45 -72,-87 18,7 28,11 28,11l21 8 7 -20c0,0 12,-34 32,-87 19,-54 47,-127 76,-205 60,-157 132,-336 177,-421 65,-122 76,-202 76,-242 0,-17 -2,-27 -3,-28l-3 -12 -23 -7c6,-1 12,-1 18,-1 0,0 0,0 0,0 74,0 141,44 191,92 23,22 42,45 56,64l-137 -45 -354 968 86 34zm126 -1072c0,2 0,5 0,7 0,32 -8,104 -71,222 -47,89 -118,268 -178,425 -46,121 -86,229 -102,273 -52,-20 -199,-77 -370,-137 -206,-74 -446,-153 -598,-184 -1,-20 -2,-40 -2,-60 0,-436 275,-801 309,-843l3 -4 1 -1 0 0c9,-12 19,-19 31,-23 12,-5 25,-7 38,-7l0 0c0,0 0,0 0,0 25,0 49,7 60,11l68 131 16 -5 0 0 3 0c3,-1 7,-1 12,-1 30,0 101,10 200,102 2,3 6,7 12,11 9,6 23,11 40,11 1,0 1,0 1,0 30,0 70,-12 129,-52l398 124zm3640 710c-35,18 -88,32 -148,40 -64,9 -137,12 -208,12 0,0 0,0 0,0 -126,0 -244,-10 -295,-15 -17,-2 -27,-3 -27,-3l-1 0 -1 0c-184,-1 -366,-90 -507,-185 -142,-95 -242,-196 -263,-218l-4 -4 -1 -1 -1 0c-639,-557 -1101,-717 -1123,-725 -36,-15 -69,-26 -100,-34 40,-1 85,-9 121,-37 78,26 185,77 305,142 138,76 293,170 445,267 304,193 595,396 709,477 32,23 51,36 51,36l1 1 1 0c203,107 409,136 572,136 181,0 310,-35 328,-41 10,-1 19,-1 27,-1 57,0 83,19 100,42 16,24 21,56 21,81 0,12 -1,23 -2,30zm-1036 -265l0 0zm-2609 -649c107,1 186,24 245,58 60,35 100,81 128,128 40,69 52,141 56,180l-78 -25c-10,-17 -39,-61 -83,-106 -54,-56 -134,-114 -231,-115 0,0 0,0 0,0 -31,0 -63,6 -95,20l-105 -33c2,-4 6,-9 12,-16 15,-17 47,-42 106,-71 14,-6 29,-13 45,-20zm-180 119l0 0zm0 0l0 0zm926 -356c-336,61 -552,119 -693,170 -140,52 -204,95 -236,129 -10,12 -17,23 -21,32l-146 -45c19,-15 40,-32 63,-52 84,-76 260,-140 450,-182 190,-43 395,-65 541,-65 0,0 1,0 1,0 0,0 0,0 0,0 51,0 94,3 127,8 -8,-1 -15,-1 -22,-1 0,0 0,0 0,0 -37,0 -59,5 -64,6zm-41 -56c-151,0 -358,23 -551,66 -194,44 -373,106 -470,192 -116,104 -179,125 -205,125 0,0 -1,0 -1,0 -15,-1 -18,-5 -19,-6l-1 -1 -2 -3c-106,-98 -189,-115 -230,-115 0,0 0,0 -1,0 -3,0 -6,0 -8,1l-55 -105c0,-39 3,-77 6,-112 23,-9 49,-13 75,-13 0,0 0,0 0,0 0,0 0,0 0,0 57,0 110,17 121,21l3 1 23 9 5 -25c54,-273 206,-390 213,-395l0 0 19 -14 -15 -17c-73,-86 -146,-114 -192,-123 40,-41 71,-63 77,-67l0 0 5 -2c5,-2 14,-5 26,-8 24,-6 64,-11 123,-11 0,0 0,0 0,0 120,0 320,24 633,122l0 0 1 0c0,1 4,2 13,4 8,3 20,7 35,12 31,10 73,26 120,48 94,44 206,111 279,202 48,61 80,132 80,216 0,1 0,2 0,3 -31,-3 -67,-5 -107,-5zm-1251 382l0 0zm0 0l0 0zm-334 -223l0 0zm1939 -31l0 0zm-21 -111c-22,10 -48,14 -75,14 0,0 0,0 0,0 -48,0 -94,-13 -109,-18 0,-4 0,-7 0,-11 0,-95 -36,-176 -89,-242 -53,-67 -123,-120 -192,-161 -135,-80 -267,-117 -277,-119 -316,-100 -519,-125 -645,-125 -82,0 -131,11 -155,19 -2,-5 -2,-10 -2,-16 0,-20 9,-43 11,-47l0 -1 1 -1 1 -2c2,-7 8,-14 19,-22 12,-7 29,-14 50,-19 42,-10 97,-13 155,-13 0,0 1,0 1,0 0,0 0,0 0,0 109,0 226,13 277,19 17,3 26,4 26,4l0 0c460,70 708,246 844,407 135,161 157,309 159,324l0 1 0 9zm-1473 -397c-44,40 -157,160 -207,384 -25,-7 -68,-17 -115,-17 -22,0 -46,2 -69,8 25,-169 86,-297 149,-390 21,-30 41,-57 61,-80 24,0 98,7 181,95zm725 -120l0 0zm-1337 6817l0 0zm3758 -4593l0 0 1 0c-1,0 -1,0 -1,0zm-506 -436l0 0 -1 0 0 0 1 0z"/>
  <path class="fil1" d="M3220 6137c-46,-82 -66,-157 -66,-225 0,-83 29,-154 73,-212 65,-88 161,-149 240,-189 79,-39 143,-58 143,-58l1 0 1 0c125,-27 396,-110 634,-186 119,-38 231,-74 312,-100 81,-27 133,-44 133,-44l13 40c0,0 -206,69 -445,145 -239,76 -509,158 -638,186l-5 -21 6 21 -4 1c-23,7 -131,43 -231,112 -50,35 -98,77 -133,128 -35,51 -58,109 -58,177 0,59 18,127 61,204l-37 21zm-766 -15c-4,-25 -5,-50 -5,-74 0,-147 54,-266 108,-348 54,-82 108,-127 109,-128l14 17 -15 -15c170,-173 457,-284 701,-354 245,-70 447,-98 448,-98l5 42c0,0 -12,2 -34,5 -79,13 -281,50 -499,119 -218,70 -451,173 -591,316l0 0 -1 1 -2 2c-11,9 -61,55 -109,131 -47,76 -91,182 -91,310 0,22 1,45 4,69l-42 5zm-659 42c-43,-81 -61,-153 -61,-216 0,-66 20,-122 50,-167 44,-68 109,-112 162,-140 54,-28 97,-40 98,-40l5 20 -9 -19 911 -428 18 38 -912 429 -2 1 -3 0c-15,5 -85,28 -151,77 -65,49 -124,122 -124,229 0,55 16,120 56,196l-38 20zm-518 -157c-2,-16 -4,-33 -4,-49 0,-123 71,-231 171,-321 152,-137 375,-241 561,-312 186,-70 334,-107 334,-108l11 42c0,0 -16,4 -45,12 -99,28 -350,104 -573,223 -112,59 -217,129 -293,207 -77,79 -123,164 -123,257 0,14 1,28 3,43l-42 6zm6580 -5510l21 1c0,0 -30,591 -90,1143l0 0 0 1c-1,2 -39,211 -165,468 -126,256 -342,561 -697,749l-1 0 -1 1c0,0 -13,5 -39,17 -179,81 -946,445 -1759,1022 -470,333 -1141,583 -1724,753 -292,84 -561,148 -773,192 -211,44 -363,67 -424,70l-1 -21 4 21c-1,0 -397,63 -705,63 -39,0 -76,-1 -111,-3 -12,-1 -24,-1 -36,-1 -282,0 -509,217 -552,499l-1 1 0 1 0 2c-3,9 -13,52 -13,110 0,75 17,172 87,251 70,78 196,142 422,146l17 0 3 17 0 0c1,4 13,54 51,101 38,46 98,91 204,92 7,0 14,-1 22,-1l0 0 1 0 4 0c20,-2 111,-10 203,-57l13 -6 11 9 0 1c10,8 109,83 275,83 21,0 42,-1 64,-4l1 0 2 0 3 0c12,0 63,-1 121,-16 58,-15 122,-43 164,-96l15 -19 17 17 0 0c3,4 100,96 318,96 109,0 248,-23 422,-93l32 -13 -3 35 -13 -2 14 0 -1 2 -13 -2 14 0 0 1c0,1 0,6 7,14 10,12 35,32 94,49 58,16 150,30 291,31l-1 21 -1 -21c0,0 285,-24 592,-24 155,0 316,6 449,25l-3 21 2 -21c0,0 11,1 34,2 67,5 229,15 443,15 255,0 583,-14 914,-67l0 0 1 0c0,0 25,-3 75,-10 150,-21 517,-76 1058,-177l0 0 1 0c0,-1 574,-75 1175,-75 255,0 515,14 739,52l-4 21 3 -21 803 100 -2 21 1 -21c0,0 12,1 32,3 63,4 212,13 403,13 230,0 522,-13 797,-64 275,-51 532,-140 695,-287l14 16 -17 -12 0 -1c7,-11 160,-248 160,-741 0,-107 -7,-225 -24,-355l21 -3 -21 4 0 -2c-5,-26 -57,-271 -349,-1157l-1 -1 0 -1c0,-1 -120,-652 -321,-2184l0 -1 -24 -767 -3439 -5 0 -21 21 1 -21 -1 0 -21 3481 4 25 807 -22 1 22 -3c100,766 180,1312 235,1666 27,177 49,306 63,391 14,84 22,125 22,125l-21 4 20 -7c312,945 351,1162 351,1165l0 0 0 1c18,132 25,252 25,360 0,518 -166,763 -168,766l-2 2 -2 2c-173,156 -437,245 -716,297 -278,52 -572,65 -804,65 -257,0 -438,-17 -438,-17l-1 0 -804 -100 -1 0c-219,-38 -478,-51 -731,-51 -299,0 -591,18 -809,37 -109,9 -199,18 -262,25 -63,7 -99,12 -99,12l-3 -21 4 21c-721,135 -1134,187 -1135,187l-3 -21 4 21c-334,54 -665,68 -921,68 -287,0 -481,-18 -481,-18l-1 0 0 0c-130,-19 -289,-25 -443,-25 -153,0 -300,6 -409,12 -55,3 -100,6 -131,9 -31,2 -49,3 -49,3l-1 0 -1 0c-204,-1 -310,-28 -367,-58 -29,-15 -46,-31 -56,-45 -9,-15 -11,-28 -11,-34l0 -2 21 2 8 20c-178,71 -323,96 -438,96 -239,0 -346,-106 -348,-109l15 -15 16 14c-50,63 -124,94 -187,110 -63,17 -117,18 -131,18l-4 0 0 -22 3 22c-24,2 -47,3 -69,3 -191,0 -301,-92 -303,-93l14 -17 9 19c-114,58 -223,61 -225,61l-1 -21 2 21c-9,1 -17,1 -25,1 -123,1 -199,-57 -242,-113 -42,-56 -54,-112 -55,-113l21 -5 0 21c-233,-3 -373,-70 -452,-160 -80,-90 -98,-199 -98,-279 0,-71 14,-122 14,-123l21 5 -22 -3c47,-300 290,-535 595,-535 13,0 26,1 39,2 34,2 70,3 108,3 151,0 326,-16 463,-32 68,-8 127,-16 169,-22 42,-5 66,-9 66,-9l1 -1 2 0c54,-2 207,-25 417,-68 630,-131 1787,-447 2480,-939 933,-662 1805,-1043 1806,-1044l9 20 -10 -19c345,-182 555,-479 679,-730 62,-126 102,-240 127,-323 12,-41 21,-75 26,-98 3,-12 5,-20 6,-26 1,-6 2,-9 2,-9l21 3 -21 -2c30,-275 52,-560 67,-776 8,-108 13,-199 17,-263 4,-64 6,-101 6,-101l1 -20 20 0 0 21z"/>
 </g>
</svg>
