<?xml version="1.0" encoding="UTF-8"?>
<!DOCTYPE svg PUBLIC "-//W3C//DTD SVG 1.1//EN" "http://www.w3.org/Graphics/SVG/1.1/DTD/svg11.dtd">
<!-- Creator: CorelDRAW X8 -->
<svg xmlns="http://www.w3.org/2000/svg" xml:space="preserve" width="101.529mm" height="59.362mm" version="1.1" style="shape-rendering:geometricPrecision; text-rendering:geometricPrecision; image-rendering:optimizeQuality; fill-rule:evenodd; clip-rule:evenodd"
viewBox="0 0 3459 2022"
 xmlns:xlink="http://www.w3.org/1999/xlink">
 <defs>
  <style type="text/css">
   <![CDATA[
    .fil1 {fill:#38AAE9;fill-rule:nonzero}
    .fil0 {fill:#BFBFBF;fill-rule:nonzero}
   ]]>
  </style>
 </defs>
 <g id="Слой_x0020_1">
  <metadata id="CorelCorpID_0Corel-Layer"/>
  <g id="kross-noga.eps">
   <path class="fil0" d="M2559 2022l-37 0 -1 -3 0 -1 -1 0c0,-1 -1,-2 -2,-4 -1,-2 -3,-5 -5,-7 -1,0 -2,-1 -3,-1 0,0 0,0 0,0 0,0 0,0 -2,2 -2,2 -4,5 -6,10l-1 4 -34 0 -2 -2 0 -1 -1 0 -1 -2c-2,-2 -3,-4 -5,-5 -1,0 -2,0 -3,0 0,0 0,0 0,0 0,0 -1,0 -2,1 -1,1 -3,2 -4,6l-2 3 -38 0 -1 -4 0 0 0 -1c-1,-1 -1,-2 -2,-3 -1,-2 -3,-5 -5,-7 -1,-1 -2,-1 -2,-1 0,0 0,0 0,0 0,0 -1,0 -3,2 -2,2 -5,5 -7,11l-2 3 -37 0 -2 -3 0 0 0 0 -1 -1 -2 -3c-2,-2 -5,-3 -7,-3 0,0 0,0 0,0 -1,0 -2,0 -4,1 -1,1 -4,3 -6,7l-2 2 -33 0 -1 -3 0 0 -1 0 -1 -2c-1,-2 -3,-4 -5,-4 -1,-1 -2,-1 -3,-1l0 0c-1,0 -1,0 -3,1 -1,1 -3,3 -5,6l-2 3 -40 0 -1 -3 0 0 -1 -1c0,-1 -1,-2 -2,-3 -1,-3 -4,-6 -6,-7 -1,-1 -2,-2 -3,-2 0,0 0,0 0,0 -1,0 -2,0 -4,2 -2,2 -4,5 -7,11l-1 3 -31 0 -2 -4 0 0 0 -1 -1 -2c-1,-2 -2,-5 -3,-7 -1,-1 -2,-1 -3,-2l0 0 0 0 -2 2c-2,2 -4,5 -7,11l-1 3 -32 0 -2 -3 0 0 -1 -1c0,-1 -1,-2 -2,-3 -2,-3 -5,-6 -7,-7 -2,-1 -3,-2 -5,-2 0,0 0,0 0,0 -1,0 -3,1 -5,2 -2,2 -5,6 -7,11l-2 3 -34 0 -2 -3 0 0 -1 -1c0,-1 -1,-2 -2,-3 -2,-3 -4,-6 -6,-7 -2,-1 -3,-2 -5,-2 0,0 0,0 0,0 -1,0 -2,1 -4,2 -2,2 -4,5 -7,11l-2 3 -37 0 -1 -4 -1 0 0 -1c0,-1 -1,-2 -1,-3 -1,-3 -3,-6 -4,-7l-2 -1c0,0 -1,0 -2,2 -2,2 -5,5 -7,11l-2 3 -36 0 -2 -4 0 0 0 -1c0,-1 -1,-2 -2,-3 -1,-2 -3,-5 -5,-6 -1,-1 -2,-2 -4,-2 -1,0 -3,1 -5,3 -3,2 -6,5 -10,11l-1 2 -32 0 -1 -4 0 0 -1 -1c0,-1 0,-2 -1,-3 -1,-2 -3,-5 -5,-7 -1,0 -2,-1 -3,-1 -1,0 -2,1 -4,2 -3,2 -6,6 -9,11l-2 3 -43 0 -1 -4 0 0 -1 -1c0,-1 -1,-2 -1,-3 -2,-2 -4,-5 -5,-7 -1,-1 -2,-1 -2,-1 0,0 0,0 0,0 -1,0 -2,0 -4,2 -1,2 -4,5 -7,11l-1 3 -38 0 -2 -4 0 0 0 0 -2 -3c-1,-2 -2,-5 -4,-7 0,0 -1,-1 -1,-1l-1 0c-1,2 -3,5 -4,11l-2 4 -32 0 -1 -3 0 0 -1 -1c0,-1 -1,-2 -2,-3 -1,-3 -4,-6 -6,-7 -2,-1 -3,-2 -4,-2 0,0 0,0 0,0 -1,0 -2,1 -4,2 -2,2 -4,5 -7,11l-2 3 -33 0 -2 -3 0 0 0 -1c-1,-1 -2,-2 -2,-3 -2,-3 -4,-6 -7,-7 -1,-1 -2,-2 -3,-2 0,0 0,0 0,0 -1,0 -2,0 -4,2 -2,2 -4,5 -7,11l-1 3 -35 0 -1 -3 0 0 -1 -1c-1,-1 -1,-2 -2,-3 -2,-3 -4,-6 -7,-7 -1,-1 -2,-2 -3,-2 0,0 0,0 0,0 -1,0 -1,0 -3,2 -1,1 -3,5 -5,10l-1 4 -37 0 -2 -3 0 0 -1 -2c-1,-1 -1,-2 -3,-4 -2,-3 -5,-6 -6,-7l-1 0 0 0 -1 1c-1,2 -2,5 -4,11l-1 4 -38 0 -2 -4 0 0 0 -1c0,-1 -1,-2 -1,-3 -1,-3 -3,-6 -4,-7l-2 -1c0,0 0,0 -2,2 -2,2 -5,5 -8,11l-1 3 -40 0 -2 -3 0 0 0 -1c-1,-1 -2,-2 -2,-3 -2,-3 -5,-6 -7,-7 -1,-1 -2,-2 -2,-2 0,0 0,0 0,0 0,0 -1,0 -2,2 -1,1 -3,4 -4,10l-2 4 -40 0 -2 -4 0 0 0 -1c-1,-2 -1,-3 -2,-4 -2,-3 -4,-6 -5,-7l0 0 -1 0 -2 2c-1,2 -3,5 -6,11l-1 3 -37 0 -2 -4 0 0 0 -1c-1,-1 -1,-2 -2,-3 -1,-2 -3,-5 -5,-6 -1,-1 -2,-2 -3,-2 -1,0 -3,1 -5,2 -2,2 -5,6 -9,11l-1 3 -34 0 -1 -4 -1 0 0 -1c0,-1 -1,-2 -1,-3 -2,-2 -4,-5 -6,-6 -1,-1 -2,-2 -3,-2 -1,0 -3,1 -6,3 -2,1 -5,5 -9,11l-2 2 -35 0 -2 -3 0 0 -1 -1c0,-1 -1,-2 -2,-3 -2,-3 -4,-6 -7,-7 -2,-1 -3,-2 -4,-2 0,0 0,0 0,0 -1,0 -2,0 -4,2 -1,2 -4,5 -6,11l-1 3 -38 0 -2 -2 0 0 0 -1 -1 -1c-1,-2 -3,-4 -5,-5 -3,-4 -8,-7 -12,-7 0,0 0,0 0,0 -2,0 -3,1 -6,2 -2,2 -4,5 -7,11l-2 3 -26 0 -2 -3 0 0 0 -1 -1 -2c-1,-1 -3,-3 -4,-4l-2 0c-1,0 -1,0 -3,1 -1,1 -3,3 -5,6l-2 3 -37 0 -2 -3 0 -1 -1 0c0,-1 -1,-2 -1,-4 -2,-2 -4,-5 -6,-6 -1,-1 -2,-2 -3,-2 0,0 0,0 0,0 0,0 -1,0 -3,2 -2,2 -4,5 -7,11l-1 3 -33 0 -1 -4 0 0 -1 -1c0,-1 -1,-2 -1,-3 -1,-2 -3,-5 -5,-6 -2,-1 -3,-2 -4,-2 -1,0 -3,1 -6,3 -3,2 -6,5 -10,11l-2 2 -30 0 -2 -3 0 -1 0 0c-1,-1 -1,-2 -2,-4 -2,-2 -4,-5 -6,-6 -1,-1 -3,-2 -4,-2 0,0 0,0 0,0 -1,0 -2,1 -4,2 -2,2 -5,6 -8,11l-1 3 -30 0 -1 -4 0 0 -1 -1c0,-1 0,-2 -1,-3 -1,-3 -3,-5 -4,-6 -2,-1 -3,-2 -4,-2 -1,0 -3,1 -5,3 -3,2 -7,5 -11,11l-1 2 -36 0 -1 -2 0 0 -1 -1 -1 -1c-1,-2 -3,-3 -5,-5 -3,-4 -9,-7 -13,-7 0,0 0,0 0,0 -3,0 -5,1 -8,3 -3,2 -6,5 -10,11l-2 2 -25 0 -1 -4 0 0 -1 -2c0,-1 0,-2 -1,-4 -2,-3 -4,-6 -6,-8 -2,-1 -3,-2 -5,-2 0,0 0,0 0,0 -2,0 -6,1 -12,7l-1 1 -34 0 -1 -5 0 -1 0 -1c0,-1 0,-2 -1,-4 0,-3 -2,-6 -3,-8l-3 -1c0,0 0,0 0,0 -1,0 -2,0 -5,2 -2,1 -5,4 -9,8l-2 2 -33 0 -1 -3 0 0 0 -1 -1 0 -1 -3c-1,-2 -3,-4 -5,-5 -1,-1 -2,-1 -4,-1 0,0 0,0 0,0 -2,0 -5,1 -11,7l-1 2 -40 0 -1 -4 0 0 -1 -1c0,-1 -1,-2 -4,-2 0,0 0,0 0,0 -3,0 -9,1 -18,7l-1 1 -28 0 -1 -4 0 0 0 0 -1 -2c-1,-2 -3,-3 -4,-4 -1,-1 -2,-1 -3,-1 0,0 0,0 0,0 -2,0 -7,1 -14,8l-2 2 -34 0 -1 -4 0 0 -1 -1c0,0 0,-2 -1,-3 -1,-2 -3,-4 -5,-6 -1,-1 -2,-1 -4,-1 0,0 0,0 0,0 -1,0 -5,1 -9,6l-2 2 -33 -3 -1 -1 0 0 0 0 -1 0 -1 -2c-2,0 -3,-1 -4,-1 0,0 0,0 0,0l-1 1c0,0 -1,2 -2,6l-1 6 -5 -1c0,0 -113,-1 -203,-24 -30,-7 -58,-17 -79,-30l-2 -2 0 -2c0,-1 -24,-185 -24,-363l0 -2c0,-36 1,-72 4,-107 0,-6 12,-314 98,-630 0,-1 2,-9 6,-24 4,-15 9,-37 16,-63 13,-51 30,-118 46,-182 0,-2 -1,-6 -1,-12 0,-8 1,-19 8,-29 7,-10 19,-17 38,-17 0,0 0,0 0,0 3,0 6,0 10,0l0 0 1 0 1 1c1,0 3,0 5,1 4,1 11,2 19,4 15,3 38,5 65,5 0,0 0,0 0,0 44,0 100,-7 155,-36 9,-7 188,-135 324,-211 44,-25 83,-45 111,-53 2,-12 11,-49 44,-90 39,-49 112,-103 249,-123l0 0c0,0 43,-7 85,-7l5 0c12,0 23,1 33,2 12,2 21,4 29,9 4,3 8,7 10,12 1,3 5,10 5,19 0,3 -1,7 -2,10 8,7 27,23 45,49 24,35 48,87 50,159 4,-1 9,-2 15,-2 5,0 10,0 15,2 5,2 10,6 14,11l0 0c4,4 91,112 91,246 0,6 0,12 0,18 6,2 16,6 26,14 16,12 31,33 32,67l5 8c1,-1 2,-2 4,-3 2,-2 6,-3 9,-3 0,0 0,0 0,0 11,0 23,6 42,24 2,1 8,7 15,16 4,5 7,10 10,16l0 -4 2 12c2,5 3,10 3,16 7,1 21,5 35,15 20,13 40,37 44,79 4,0 11,1 19,3 14,3 31,8 44,18 8,6 16,13 19,22 7,2 22,7 40,18 23,13 49,35 66,70 4,0 9,-1 15,-1 15,0 37,3 59,13 21,10 43,28 58,57 4,-1 9,-1 16,-1 0,0 0,0 0,0 0,0 0,0 0,0 26,0 76,9 146,63 4,2 24,10 48,21 27,13 58,28 77,44 33,28 102,65 167,82 2,0 10,1 20,4 11,4 25,10 35,21 5,7 9,15 10,26 3,0 6,1 10,3 9,3 22,7 38,13 32,10 78,25 133,41 108,31 250,66 382,82 5,0 40,1 77,29 36,29 74,83 84,189 6,1 16,6 26,18 15,17 28,49 29,108 3,7 17,36 20,72l0 20c-1,19 -7,40 -19,59 -15,22 -39,43 -76,59 -4,2 -123,55 -375,63l-4 0 -1 -3 0 0 -1 -1c0,-1 -1,-2 -2,-3 -1,-2 -3,-5 -5,-6 -2,-1 -3,-1 -4,-1 -2,0 -3,0 -5,2 -3,2 -6,5 -9,11l-1 3 -32 0 -2 -3 0 0 0 0 0 -1 -3 -3c-2,-2 -4,-3 -7,-3 0,0 0,0 0,0 -2,0 -6,1 -12,8l-2 2 -35 0 -1 -3 0 0 -1 0 -1 -2c-1,-2 -3,-4 -4,-5l-3 0c-1,0 -2,0 -3,1 -2,1 -4,3 -6,6l-2 3 -31 0 -1 -3 0 0 -1 -1 -1 -1c-1,-2 -3,-4 -4,-5l-2 0c-1,0 -1,0 -3,1 -1,1 -3,3 -5,6l-1 3 -33 0 -1 -2 0 0 -1 0 -1 -1c-1,-1 -2,-2 -3,-3 -3,-3 -7,-4 -10,-4 0,0 0,0 0,0 -1,0 -2,0 -4,1 -1,1 -2,2 -4,6l-1 3 -36 0 -1 -2 0 0 -1 0 0 -1c-1,-1 -2,-2 -3,-3 -3,-3 -7,-4 -10,-4 0,0 0,0 0,0 -3,0 -8,1 -14,8l-1 2 -30 0 -2 -2 0 0 0 -1 -2 -1c-1,-2 -2,-4 -4,-5 -4,-4 -9,-7 -12,-7 0,0 0,0 0,0 -2,0 -3,1 -4,2 -2,2 -4,5 -6,10l-2 4 -29 0 -1 -2 0 0 0 0 -1 -1 -2 -2c-2,-2 -4,-3 -6,-3 0,0 0,0 0,0 -1,1 -1,1 -3,2 -2,2 -4,7 -6,14l-1 4zm-29 -12l20 0c2,-6 4,-10 7,-13 3,-4 8,-7 12,-7 0,0 0,0 0,0 6,1 10,3 13,6 1,1 2,2 3,2l15 0c2,-4 4,-8 7,-11 4,-3 8,-5 13,-5 0,0 0,0 0,0 9,0 15,6 20,10 2,2 5,5 6,6l18 0c7,-7 14,-10 21,-10 0,0 0,0 0,0 7,0 13,3 17,6 2,2 3,3 4,4l22 0c2,-3 4,-5 6,-7 3,-2 7,-3 11,-3 0,0 0,0 0,0 7,0 13,3 17,6 2,2 3,3 5,4l20 0c2,-3 4,-5 6,-7 3,-2 6,-3 9,-3 1,0 1,0 1,0 3,0 6,1 8,2 2,2 4,3 6,5 1,1 2,2 2,3l18 0c2,-3 4,-5 7,-7 3,-2 6,-3 10,-3 0,0 0,0 0,0 3,0 6,1 9,2 2,2 4,3 5,5 2,1 2,2 3,3l22 0c7,-7 14,-10 20,-10 0,0 0,0 0,0 7,0 12,3 16,7 1,1 2,2 3,3l18 0c3,-5 6,-9 9,-11 4,-4 8,-5 13,-5 0,0 0,0 0,0 4,0 7,1 10,3 3,2 5,4 7,6 1,2 3,4 4,5 234,-8 351,-56 364,-62l2 0 0 0 0 0c36,-15 57,-35 71,-55 13,-20 17,-42 17,-62 0,-22 -6,-43 -11,-58 -1,0 -2,0 -4,0 0,0 0,0 0,0 -16,0 -65,7 -172,67 -7,5 -95,67 -270,79 -153,10 -447,11 -534,11 -16,0 -25,0 -25,0l0 0 -1845 -17c0,0 -3,0 -7,0 -28,0 -132,0 -247,-11 -111,-9 -232,-27 -308,-62 0,0 0,0 0,0l1 0 -1 0c3,32 6,59 8,79 2,14 3,24 3,28 33,21 89,33 141,41 54,7 104,10 123,10 2,0 3,0 4,0 1,-3 2,-5 4,-7 3,-3 7,-5 10,-5 0,0 0,0 0,0 4,0 7,2 10,3 1,1 1,1 2,2l23 2c5,-5 11,-8 16,-8 0,0 0,0 0,0 5,0 8,1 11,3 3,2 5,5 6,7 2,2 3,4 3,5l21 0c8,-7 14,-10 21,-10 0,0 0,0 0,0 4,0 7,1 9,3 3,1 5,3 6,5 1,1 2,2 2,3l17 0c9,-6 16,-8 22,-8 0,0 0,0 0,0 6,0 11,3 13,6 1,0 1,1 2,1l25 0c6,-6 12,-9 18,-9 0,0 0,0 0,0 4,0 8,1 11,3 2,1 4,4 6,6 1,1 2,3 3,4l20 0c3,-4 7,-7 10,-9 4,-2 8,-3 11,-3 0,0 0,0 0,0 5,0 9,2 12,5 2,3 4,6 5,9 0,2 1,4 1,6l19 0c6,-5 12,-8 18,-8 0,0 0,0 0,0 5,0 9,2 12,4 3,3 6,6 7,9 2,3 3,5 4,7l10 0c3,-5 7,-9 11,-11 5,-3 10,-5 15,-5 0,0 0,0 0,0 9,0 16,5 21,10 3,2 5,5 7,6l22 0c4,-5 8,-8 12,-11 4,-3 8,-5 12,-5 0,0 0,0 0,0 0,0 0,0 0,0 5,0 8,2 11,4 3,2 5,5 6,7 1,2 2,4 3,5l14 0c2,-4 5,-8 8,-11 4,-3 8,-5 12,-5 0,0 0,0 0,0 5,0 8,2 11,4 3,2 5,4 7,7 1,2 3,4 3,5l17 0c4,-5 7,-8 11,-11 4,-3 9,-5 13,-5 0,0 0,0 0,0 0,0 0,0 0,0 4,0 8,2 11,4 3,2 5,5 6,7 2,2 3,4 3,5l17 0c2,-4 5,-8 8,-11 3,-3 7,-5 11,-5 0,0 0,0 0,0 4,0 8,2 10,4 3,2 5,4 7,7 1,2 2,4 3,5l24 0c2,-3 4,-5 6,-7 3,-2 7,-3 10,-3 0,0 0,0 0,0 3,0 6,1 8,2 3,2 4,3 6,5 1,1 2,2 2,3l12 0c3,-5 6,-8 9,-11 4,-3 9,-5 13,-5 0,0 0,0 0,0 9,0 16,6 20,10 3,2 5,5 6,6l24 0c2,-4 4,-8 7,-11 3,-3 8,-5 12,-5 0,0 0,0 0,0 4,0 8,2 11,4 3,2 5,4 7,6 2,3 4,5 5,6l22 0c3,-5 7,-8 10,-11 4,-3 8,-5 13,-5 0,0 0,0 0,0 0,0 0,0 0,0 4,0 8,2 10,4 3,2 5,5 7,7 1,2 2,4 3,5l19 0c3,-5 6,-8 9,-11 4,-3 9,-5 13,-5 0,0 0,0 0,0 0,0 0,0 0,0 4,0 8,2 10,4 3,2 5,5 7,7 1,2 2,4 3,5l21 0c2,-4 4,-8 7,-10 3,-4 7,-6 11,-6 0,0 0,0 0,0 4,0 7,2 9,4 3,3 4,5 6,7 1,2 1,4 2,5l23 0c2,-4 4,-7 6,-10 2,-3 6,-6 11,-6 0,0 0,0 0,0 4,0 7,2 10,4 2,2 4,4 6,7 2,2 3,4 4,5l25 0c3,-4 6,-8 8,-11 4,-3 7,-5 11,-5 0,0 0,0 0,0 5,0 8,2 10,4 2,3 4,5 5,7 1,2 2,4 2,5l21 0c1,-4 3,-7 5,-10 2,-3 6,-6 10,-6 0,0 0,0 0,0 4,0 7,2 10,4 2,2 4,4 6,7 2,2 3,4 4,5l21 0c2,-4 4,-8 7,-10 3,-4 7,-6 11,-6 0,0 0,0 0,0 4,0 7,2 10,4 3,2 5,4 7,6 2,3 3,5 4,6l20 0c3,-4 5,-8 8,-11 3,-3 8,-5 12,-5 0,0 0,0 0,0 4,0 8,2 10,4 3,2 5,4 7,7 2,2 3,4 4,5l19 0c2,-4 5,-8 8,-11 4,-3 8,-5 12,-5 0,0 0,0 0,0 4,0 8,2 11,4 3,2 5,4 7,7 1,2 3,4 4,5l15 0c1,-2 2,-5 3,-7 2,-3 4,-5 7,-7 1,-1 3,-2 5,-2 0,0 0,0 0,0 5,0 7,2 10,4 2,3 3,5 5,7 1,2 2,4 3,5l22 0c3,-4 5,-8 8,-11 3,-3 7,-5 11,-5 0,0 1,0 1,0 4,0 7,2 9,4 3,2 5,5 6,7 2,2 2,4 3,5l29 0c3,-5 6,-8 9,-11 4,-3 8,-5 12,-5 0,0 0,0 0,0 0,0 0,0 0,0 4,0 8,2 11,4 2,2 4,5 6,7 1,2 2,4 3,5l16 0c4,-5 7,-8 11,-11 4,-3 8,-5 12,-5 0,0 0,0 0,0 0,0 0,0 0,0 5,0 8,2 11,4 3,2 5,4 7,7 1,2 2,4 3,5l20 0c3,-4 5,-8 8,-10 3,-4 7,-6 11,-6 0,0 0,0 0,0 4,0 8,2 10,4 2,3 4,5 5,7 1,2 2,4 2,5l22 0c2,-4 5,-8 8,-11 4,-3 8,-5 12,-5 0,0 0,0 0,0 5,0 8,2 11,4 3,2 5,4 7,6 2,3 4,5 5,6l20 0c2,-5 5,-8 9,-11 3,-3 8,-5 12,-5 0,0 0,0 0,0 5,0 8,2 11,4 3,2 6,4 8,6 2,3 3,5 4,6l18 0c3,-4 5,-8 7,-10 3,-4 7,-6 11,-6 0,0 0,0 0,0 4,0 8,2 10,4 2,3 4,5 5,7 1,2 2,4 2,5l15 0c2,-4 5,-8 8,-11 3,-3 7,-5 12,-5 0,0 0,0 0,0 4,0 7,2 10,4 3,2 5,4 7,7 2,2 3,4 4,5l25 0c3,-3 5,-5 7,-7 3,-2 7,-3 10,-3 0,0 0,0 0,0 4,0 7,1 9,2 2,1 4,3 6,5 1,1 2,2 3,3l20 0c2,-3 5,-5 8,-7 3,-2 7,-3 10,-3 0,0 0,0 0,0 7,0 12,4 15,7 2,1 3,2 3,3l24 0c2,-4 5,-8 7,-11 4,-3 8,-5 12,-5 0,0 0,0 0,0 4,0 7,2 10,4 2,2 4,5 6,7 1,2 2,4 3,5l22 0c1,-3 3,-5 5,-7 3,-2 7,-3 10,-3 0,0 0,0 0,0 4,0 7,1 9,2 2,1 4,3 6,5 1,1 2,2 3,3l20 0c2,-4 4,-8 6,-10 3,-4 7,-6 11,-6 0,0 0,0 0,0 4,0 8,2 10,4 3,2 5,5 6,7 2,2 3,4 4,5zm-1944 -14l0 0zm-121 -3l0 0zm121 -106l1845 17c0,0 9,0 25,0 0,0 0,0 0,0 88,0 381,-1 533,-11 172,-11 259,-73 263,-77l1 0 0 0 0 0c107,-60 158,-68 178,-69 -2,-4 -3,-6 -3,-7l-1 0 0 -2 0 -1 0 0c0,-23 -2,-42 -6,-57 -3,4 -9,8 -17,12 -22,11 -64,23 -143,28 -159,12 -748,39 -748,39l0 0 0 0c0,0 -364,-7 -895,-65 -470,-51 -814,-115 -1382,-115 -71,0 -145,1 -224,3 0,82 6,165 11,230 73,35 197,55 310,64 114,11 218,11 246,11 5,0 7,0 7,0l0 0zm-571 -66l0 0 0 0zm221 -254c569,0 914,64 1384,115 464,51 800,63 877,65 9,0 15,0 16,0 2,0 10,0 25,-1 17,-1 40,-2 69,-3 58,-3 136,-7 220,-11 167,-8 354,-18 433,-24 111,-8 145,-28 155,-38 1,-1 2,-3 3,-4 -5,-14 -10,-23 -16,-30 -8,-11 -16,-14 -21,-16 0,0 0,1 0,1 -3,2 -7,5 -14,8 -14,6 -40,14 -92,22 -104,16 -310,33 -718,41l-1 0 0 0c0,0 -169,-3 -364,-12 -195,-9 -416,-23 -519,-46 -2,0 -18,-2 -44,-6 -29,-3 -70,-8 -121,-14 -103,-12 -244,-28 -400,-44 -313,-32 -687,-63 -927,-63 -1,0 -1,0 -1,0 -67,0 -125,2 -167,8 -1,18 -1,36 -1,55 79,-2 153,-3 224,-3zm-55 -72c483,0 1493,127 1494,127l0 0 0 0c89,20 269,34 443,43 174,8 343,13 409,14 18,0 28,1 29,1 279,-5 463,-15 584,-26 122,-11 181,-22 209,-31 16,-5 22,-9 23,-11 -10,-104 -46,-156 -80,-182 -34,-26 -66,-27 -69,-27 0,0 0,0 0,0l0 0 -1 0 0 0c-245,-29 -520,-124 -564,-139 -2,4 -5,10 -11,16 -12,11 -33,21 -70,21 0,0 0,0 0,0 -30,0 -71,-7 -126,-25 -2,0 -14,-3 -33,-7 -20,-5 -48,-11 -79,-17 -63,-13 -137,-26 -184,-31 -47,-4 -77,-5 -109,-15 -32,-10 -66,-29 -119,-69 -61,-47 -112,-56 -144,-56l0 0c-21,0 -34,4 -35,4l0 0 0 1 0 0c-1,0 -5,1 -11,1 0,0 0,0 0,0 -22,0 -74,-12 -143,-99 -38,-47 -85,-73 -126,-86 -41,-14 -76,-15 -90,-15 0,0 0,0 0,0 -2,0 -4,0 -5,0 -1,0 -2,0 -2,0l0 0 0 0c0,0 -4,0 -11,0 -17,0 -51,-1 -89,-12 -38,-11 -79,-31 -109,-68 -19,-24 -33,-54 -39,-93l-197 77c-3,2 -36,20 -82,39 -48,19 -113,39 -175,39 -28,0 -56,-4 -82,-14l0 0 0 0c0,0 -27,-11 -58,-35 -30,-24 -66,-60 -84,-110l0 0c0,-1 -2,-6 -2,-14 0,-12 5,-33 25,-54 20,-22 55,-46 116,-67l0 0 0 0 493 -162c1,-7 2,-22 8,-39 7,-21 22,-46 50,-62 14,-8 30,-14 49,-16 -39,-14 -98,-29 -186,-45l0 0 -1 0 0 0 0 0 0 -1c-1,0 -2,0 -3,0 -3,0 -7,-1 -12,-1 -14,0 -37,3 -68,16l0 0 0 0 -2 0c-1,1 -2,1 -4,2 -4,1 -10,4 -17,7 -15,7 -37,17 -65,32 -55,31 -134,81 -225,161 -3,3 -30,31 -69,59 -42,29 -99,59 -158,59 -4,1 -46,6 -92,6 -20,0 -41,-1 -60,-4 -16,-2 -30,-5 -42,-11 -32,126 -67,263 -67,263l0 0 0 0c-75,278 -93,550 -97,614 0,9 0,14 0,14l0 0 0 0c-1,12 -2,24 -3,36 43,-6 100,-8 168,-8zm3240 171l0 0zm0 0l0 0zm-3411 -200l0 0zm1773 -397c34,0 88,10 151,58 53,40 85,58 115,68 30,9 59,10 107,14 96,9 298,55 298,55l0 0 0 1c55,18 95,24 123,24 0,0 0,0 0,0 34,0 51,-9 61,-17 8,-8 10,-15 11,-17 -1,-8 -3,-15 -8,-20 -4,-6 -10,-10 -17,-13 -13,-7 -27,-9 -30,-9l-1 0 0 0 -1 0c-30,-8 -60,-20 -88,-34 0,3 0,6 0,9 0,27 -5,44 -14,55 -9,11 -20,14 -30,14 0,0 0,0 0,0 -11,0 -19,-3 -21,-4 -7,-2 -13,-6 -18,-12 -5,-5 -8,-12 -11,-19 -5,-14 -6,-32 -6,-48 0,-2 0,-4 0,-6 0,-1 0,-1 -1,-1 -1,-1 -3,-3 -6,-5 -5,-5 -12,-11 -21,-18 -16,-13 -38,-27 -60,-38 -2,25 -9,40 -18,48 -9,9 -18,10 -21,10 -2,0 -4,0 -7,0 0,0 0,0 0,0 -11,0 -20,-5 -26,-12 -6,-7 -10,-16 -12,-25 -6,-19 -6,-38 -6,-46 0,-1 0,-2 0,-2 -4,-20 -12,-31 -23,-38 -11,-6 -23,-8 -34,-8 0,0 0,0 0,0 0,0 0,0 0,0 -7,0 -14,0 -18,1 2,13 4,27 4,42 0,17 -2,34 -8,48 -6,15 -16,27 -32,32l-1 0 0 0c0,0 -4,1 -9,1 -8,0 -22,-2 -34,-11 -11,-10 -20,-28 -20,-56 0,-24 2,-46 2,-66 0,-9 -1,-17 -2,-24 -4,-2 -11,-6 -19,-11 -7,-4 -15,-10 -22,-17 0,1 0,1 0,1 -2,17 -5,36 -11,51 -4,10 -9,19 -17,25 -4,3 -10,5 -16,5 0,0 0,0 0,0 -7,0 -14,-3 -21,-7 -2,-1 -5,-1 -8,-3 -3,-3 -6,-7 -9,-13 -5,-11 -9,-31 -9,-69 0,-31 -2,-50 -4,-62 0,-1 -1,-2 -1,-2 -10,4 -33,11 -59,11 -16,0 -34,-3 -51,-11 -4,18 -9,35 -15,51 -8,21 -18,38 -31,50 -7,6 -16,10 -25,10 -1,0 -1,0 -1,0 0,0 0,0 0,0 -7,0 -16,-3 -24,-8l0 0 0 0c-1,-1 -6,-4 -11,-13 -6,-8 -11,-22 -11,-41 0,-13 3,-29 10,-49l0 -1 0 -1c0,0 1,0 2,-2 1,-1 2,-4 4,-6 4,-6 9,-14 14,-23 4,-8 8,-17 12,-26l0 0c0,-5 -1,-21 -13,-51 -9,21 -21,43 -36,60 -15,17 -33,29 -54,30l-1 0 -1 0c0,0 -9,-3 -19,-10 -9,-8 -19,-20 -19,-40 0,-12 4,-27 14,-45l1 -1 0 0c0,0 0,-1 2,-3 1,-2 3,-6 6,-10 5,-8 12,-20 18,-34 2,-4 5,-9 7,-14 -1,-1 -1,-2 -2,-3 -2,-3 -5,-8 -9,-12 -9,-9 -22,-17 -43,-17 -4,0 -8,0 -12,1 -25,26 -54,62 -87,112l0 0 0 0c-1,0 -5,6 -13,12 -7,6 -19,12 -35,12l0 0c0,0 0,0 0,0 -9,0 -19,-2 -31,-8l0 0 0 0c-1,0 -4,-3 -7,-8 -4,-5 -7,-12 -7,-23 0,-16 7,-37 28,-66 -8,2 -17,4 -27,4 0,0 0,0 0,0 -10,0 -21,-2 -30,-8 -4,5 -9,13 -17,21 -13,14 -33,28 -59,28 -7,0 -14,-1 -22,-3 -1,-1 -4,-1 -7,-2 -3,-2 -8,-5 -11,-10 -3,-3 -4,-8 -4,-13 0,-4 1,-9 3,-14 2,-5 2,-8 2,-9 -3,1 -7,1 -12,1 0,0 0,0 0,0 -8,0 -16,-1 -25,-6 -7,-4 -14,-11 -19,-21l-52 20c5,39 19,68 37,91 18,23 42,39 66,50 48,22 100,25 122,25 0,0 0,0 0,0 4,0 6,0 8,0 2,0 3,0 3,0l0 0c0,0 2,0 7,0 15,0 51,1 94,15 43,14 92,41 132,91 67,85 115,94 133,94 4,0 7,-1 7,-1 2,-1 16,-5 39,-5 0,0 0,0 0,0zm868 186l0 0zm0 0l0 0zm-232 -128c0,3 0,5 -1,8 -1,10 -2,25 -2,39 0,12 1,24 3,34 2,11 6,20 11,25 3,4 7,7 13,8l0 0 1 1 0 0 0 0 1 0c1,0 2,1 3,1 3,1 7,2 12,2 0,0 0,0 0,0 7,0 14,-2 21,-9 6,-8 11,-22 11,-48 0,-5 0,-9 -1,-15 -29,-15 -54,-31 -71,-45 0,0 0,-1 -1,-1zm-250 -106c12,0 27,2 40,10 14,8 25,23 29,46l0 1 0 1c0,0 0,1 0,2 0,5 0,17 2,30 3,12 7,26 14,33 4,5 9,8 16,8 2,0 4,0 6,0l0 0 1 0 0 0 0 0 1 0c0,0 1,-1 3,-1 2,-1 5,-2 9,-6 6,-6 14,-20 14,-51 0,-7 0,-17 -2,-27 -3,-1 -4,-2 -4,-2l-1 0 -1 -1c-68,-53 -116,-61 -139,-61 -5,0 -9,0 -11,1 1,4 2,10 3,18 5,-1 12,-1 20,-1zm147 72c38,17 73,45 89,59 1,-15 2,-27 4,-33 -12,-8 -27,-16 -42,-23 -19,-10 -39,-18 -52,-24 1,8 1,15 1,21zm-203 58l0 0zm-86 -217c13,9 22,20 28,32 8,17 10,37 10,58 0,21 -2,43 -2,66 0,26 7,39 16,46 9,8 19,9 26,9 0,0 0,0 0,0 0,0 0,0 0,0 3,0 6,0 7,0 11,-4 19,-13 24,-25 5,-12 7,-28 7,-44 0,-33 -8,-66 -10,-74 0,0 0,-1 0,-1 -15,-29 -35,-46 -55,-55 -19,-9 -37,-11 -51,-12zm-281 146l0 0zm-1 -5l0 0zm0 0l0 0zm202 -41l3 1c7,5 12,7 16,7 0,0 0,0 0,0 4,0 6,-1 9,-3 3,-2 6,-5 8,-9 5,-8 8,-20 11,-32 5,-25 6,-53 6,-64 0,-1 0,-2 0,-3 -15,-32 -38,-52 -59,-65 -12,-8 -24,-13 -32,-16 2,5 4,10 6,14 3,7 6,13 8,21 5,15 8,35 8,77 0,28 2,45 5,56 3,11 6,15 8,16 1,0 1,1 1,1l2 -1zm-232 -43c6,4 12,6 17,6 6,0 11,-2 16,-6 5,-4 10,-9 15,-17 9,-14 17,-35 24,-57 13,-43 19,-92 21,-112 1,-4 1,-7 1,-8 -3,-40 -20,-61 -37,-73 -11,-8 -21,-12 -28,-14 2,15 6,47 6,77 0,6 -1,12 -1,18 -2,22 -12,47 -23,66 -9,16 -17,29 -19,32 -6,18 -9,32 -9,44 1,32 16,43 17,44zm296 -35c5,7 14,14 23,20 5,4 10,7 15,9 -2,-5 -3,-10 -5,-14 -6,-13 -16,-23 -32,-32 -1,5 -1,10 -1,17zm-11 4l0 0 0 0zm-159 -64c5,0 9,1 14,1 0,0 0,0 0,0 25,0 47,-7 56,-11 -2,-6 -4,-11 -7,-17 -3,-6 -6,-14 -10,-23l0 0 -1 -4c-2,-7 -7,-12 -13,-17 -6,-5 -14,-9 -22,-12 -14,-6 -30,-8 -38,-9 0,3 0,8 -1,14 19,23 25,45 25,60 0,7 -1,13 -3,18zm-44 -1l0 0 0 0zm10 -9c7,4 15,6 22,8 2,-4 3,-9 3,-16 0,-11 -3,-26 -16,-43 -2,15 -5,33 -9,51zm-197 -97c-10,16 -13,29 -13,39 0,14 6,23 13,29 6,5 13,8 16,9 14,-1 27,-9 39,-21 12,-12 23,-29 32,-46 17,-36 28,-75 32,-91 1,-3 1,-5 2,-6 -1,-14 -6,-26 -12,-35 -6,-9 -13,-15 -14,-16l0 0 0 0 -1 0c-18,-17 -29,-21 -33,-21 0,0 -1,0 -1,0 -1,0 -2,0 -3,1l-1 1c-1,2 -1,3 -1,4 0,1 0,2 0,3 0,36 -14,73 -28,101 -13,27 -26,47 -27,49zm-1018 55c24,9 50,13 77,13 0,0 0,0 0,0 105,0 219,-59 246,-73 4,-2 6,-4 6,-4l0 0 333 -130 -92 -252 -574 189 0 0c0,0 0,0 0,0l0 0 0 0c-60,20 -94,43 -112,63 -18,20 -21,36 -21,46 0,6 1,9 1,10l0 0 1 0 0 0c15,44 46,77 74,100 28,23 54,35 60,37l1 1zm1301 -2l0 0c0,0 0,0 0,0zm-1785 -4l0 0zm1299 -30c10,5 18,6 25,6 12,0 21,-4 28,-9 6,-5 9,-9 10,-10 89,-135 153,-173 170,-180 -1,-29 -14,-45 -26,-56 -8,-6 -17,-10 -23,-12 -1,1 -2,3 -4,5 -3,4 -8,9 -14,16 -13,13 -29,30 -47,48 -36,37 -77,79 -97,106 -24,31 -30,52 -30,65 1,14 7,20 8,21zm315 -36c7,17 11,30 14,41 1,-3 1,-6 1,-9 0,-5 1,-11 1,-17 0,-18 -2,-37 -4,-53 -2,7 -4,15 -7,23 -2,5 -3,10 -5,15zm-247 27l0 0zm-5 -4l0 0zm0 0l0 0zm-215 -82c0,0 0,1 0,2 0,3 -1,8 -3,13 -2,4 -2,8 -2,10 0,3 0,5 1,6 1,2 3,3 4,4 3,2 7,3 7,3l0 0 1 0 0 0c7,2 13,3 19,3 0,0 0,0 0,0 20,0 36,-10 48,-22 12,-11 19,-24 20,-27l0 0 4 -7 0 0c7,-11 25,-37 51,-64 35,-35 87,-71 154,-71 1,0 1,0 2,0 5,-6 10,-11 14,-15 -30,7 -71,20 -112,33 -32,11 -65,23 -92,33 2,5 5,13 5,22 0,15 -6,32 -25,47 -18,13 -48,24 -96,30zm109 -7c7,5 15,7 24,7 0,0 0,0 0,0 17,0 35,-7 40,-10 15,-17 34,-38 54,-59 23,-24 48,-49 67,-68 -54,3 -97,30 -129,60 -30,29 -50,59 -56,70zm215 -29c25,0 41,10 51,21 4,3 6,6 8,9 9,-22 15,-46 15,-68 0,0 0,-1 0,-1l-9 -12c-2,1 -4,2 -8,4 -7,5 -19,12 -33,25 -7,6 -15,13 -24,22zm-381 7c4,8 9,13 14,16 6,3 13,4 19,4 0,0 0,0 0,0 7,0 12,-1 13,-2l0 0 3 -1 0 1c51,-5 80,-17 97,-29 16,-13 20,-26 20,-37 0,-7 -2,-14 -4,-18 -7,3 -15,6 -21,8 -3,1 -6,2 -9,3 -7,20 -17,33 -29,41 -12,8 -26,10 -37,10 0,0 0,0 0,0 -17,0 -32,-5 -37,-7l-29 11zm47 -18c5,1 12,2 18,2 0,0 1,0 1,0 10,0 21,-2 30,-8 8,-5 15,-13 21,-25 -5,2 -8,3 -8,3l-6 3 -2 -6c0,0 -3,-10 -9,-25 -6,-15 -13,-36 -22,-58 -17,-44 -37,-94 -49,-118 -19,-35 -22,-57 -22,-69 0,-5 1,-7 1,-8l1 -3 6 -2c-1,0 -3,0 -5,0 0,0 0,0 0,0 -21,0 -40,12 -54,26 -6,6 -11,12 -16,18l39 -13 100 273 -24 10zm-36 -303c0,1 0,2 0,2 0,9 3,30 20,63 13,25 34,76 51,120 13,34 24,65 28,77 15,-6 56,-22 105,-39 58,-20 126,-43 169,-52 0,-5 0,-11 0,-17 0,-123 -78,-226 -87,-238l-1 -1 0 0 0 0c-3,-3 -6,-5 -9,-7 -3,-1 -7,-1 -11,-1l0 0c0,0 0,0 0,0 -7,0 -13,2 -17,3l-19 37 -4 -2 0 0 -1 0c-1,0 -2,0 -4,0 -8,0 -28,3 -56,29 -1,1 -2,2 -3,3 -3,2 -7,3 -12,3 0,0 0,0 0,0 -8,0 -20,-3 -37,-15l-112 35zm-1027 201c10,5 24,9 41,11 19,3 39,3 59,3 0,0 0,0 0,0 36,0 69,-2 83,-4 5,0 8,-1 8,-1l0 0 1 0c51,0 103,-25 143,-52 40,-27 68,-55 74,-61l1 -2 0 0 1 0c180,-157 310,-202 317,-204 10,-5 19,-8 28,-10 -11,0 -24,-3 -34,-11 -22,8 -53,22 -86,41 -39,21 -83,48 -126,75 -86,55 -168,112 -200,135 -9,6 -14,10 -14,10l-1 0 0 0c-57,30 -115,38 -161,38 -52,0 -88,-10 -93,-11 -3,0 -5,0 -8,0 -16,0 -23,5 -28,11 -5,7 -6,16 -6,23 0,4 0,7 1,9zm292 -75l0 0zm737 -183c-31,0 -53,7 -70,16 -16,10 -28,23 -36,36 -11,20 -14,40 -15,51l22 -7c2,-5 11,-17 23,-30 15,-16 38,-32 65,-32 0,0 0,0 0,0 9,0 18,1 27,5l30 -9c-1,-1 -2,-3 -4,-5 -4,-4 -13,-11 -30,-20 -4,-1 -8,-3 -12,-5zm50 33l0 0zm0 0l0 0zm-261 -100c95,17 156,34 196,48 39,14 57,27 66,36 3,4 5,7 6,9l41 -13c-5,-4 -11,-9 -17,-14 -24,-22 -74,-40 -127,-52 -54,-12 -112,-18 -153,-18 0,0 0,0 0,0 0,0 0,0 0,0 -15,0 -27,1 -36,2 2,0 4,0 6,0 0,0 0,0 0,0 11,0 17,2 18,2zm12 -16c42,0 101,7 155,19 55,12 106,30 133,54 32,29 50,35 58,35 0,0 0,0 0,0 4,0 5,-1 5,-1l1 -1 0 -1c30,-27 54,-32 65,-32 0,0 0,0 0,0 1,0 2,0 3,0l15 -30c0,-11 -1,-21 -2,-31 -6,-3 -13,-4 -21,-4 0,0 0,0 0,0 0,0 0,0 0,0 -16,0 -31,5 -34,6l-1 0 -6 3 -2 -7c-15,-77 -58,-110 -60,-112l0 0 -5 -3 4 -5c21,-25 41,-33 54,-35 -11,-12 -20,-18 -21,-19l0 0 -2 -1c-1,0 -4,-1 -7,-2 -7,-1 -18,-3 -35,-3 0,0 0,0 0,0 -34,0 -90,7 -179,35l0 0 0 0c0,0 -1,0 -3,1 -3,0 -6,2 -11,3 -8,3 -20,7 -33,14 -27,12 -58,31 -79,57 -14,17 -23,37 -23,61 0,0 0,0 0,0 9,0 19,-1 31,-1zm353 108l0 0zm0 0l0 0zm94 -63l0 0zm-547 -9l0 0zm5 -31c7,3 14,4 22,4 0,0 0,0 0,0 13,0 26,-4 30,-5 0,-1 0,-2 0,-3 0,-27 11,-50 26,-69 15,-19 34,-34 54,-45 38,-23 75,-33 78,-34 89,-28 147,-35 182,-35 23,0 37,3 44,5 0,-1 1,-3 1,-4 0,-6 -3,-12 -4,-13l0 -1 0 0 0 -1c-1,-2 -2,-4 -6,-6 -3,-2 -8,-4 -14,-5 -11,-3 -27,-4 -43,-4 -1,0 -1,0 -1,0 0,0 0,0 0,0 -31,0 -63,4 -78,6 -5,0 -7,1 -7,1l0 0c-130,19 -200,69 -238,115 -39,45 -45,87 -45,91l0 0 -1 3zm416 -112c13,11 45,45 59,108 7,-2 19,-5 32,-5 7,0 13,1 20,3 -7,-48 -25,-84 -42,-110 -6,-9 -12,-17 -18,-23 -6,0 -27,2 -51,27zm-204 -34l0 0zm377 1924l0 0zm-1061 -1296l0 0 0 0c0,0 0,0 0,0zm143 -123l0 0 0 0 0 0 0 0z"/>
   <path class="fil1" d="M2550 1733c13,-24 19,-45 19,-64 0,-23 -9,-44 -21,-60 -19,-25 -46,-42 -68,-53 -22,-11 -40,-17 -40,-17l-1 0 0 0c-35,-7 -112,-31 -179,-52 -33,-11 -65,-21 -88,-28 -23,-8 -37,-13 -37,-13l-4 12c0,0 58,19 126,40 67,22 143,45 180,53l1 -6 -2 6 2 0c6,2 36,12 65,32 14,10 27,22 37,36 10,14 17,31 17,50 0,17 -5,36 -18,58l11 6zm216 -5c1,-7 2,-14 2,-21 -1,-41 -16,-75 -31,-98 -15,-23 -31,-36 -31,-36l-4 5 5 -5c-49,-48 -129,-80 -198,-100 -69,-19 -127,-27 -127,-27l-1 12c0,0 3,0 9,1 23,4 80,14 141,34 62,20 128,49 167,89l0 0 0 0 1 1c3,2 17,15 31,37 13,21 25,51 25,87 0,7 0,13 -1,20l12 1zm186 12c12,-23 17,-43 17,-61 0,-19 -5,-34 -14,-47 -12,-19 -31,-32 -46,-40 -15,-8 -27,-11 -27,-11l-2 6 3 -6 -257 -120 -5 10 257 122 1 0 1 0c4,1 24,8 42,21 19,14 35,35 35,65 0,16 -4,34 -16,56l11 5zm146 -44c1,-5 1,-10 1,-14 0,-35 -19,-65 -48,-91 -43,-38 -106,-68 -158,-88 -53,-20 -94,-30 -95,-30l-2 12c0,0 4,1 12,3 28,8 99,29 162,63 32,17 61,36 83,58 21,23 34,47 34,73 0,4 0,8 -1,12l12 2zm-1857 -1556l-6 1c0,0 8,166 25,322l0 0 0 1c0,0 11,59 47,132 36,72 96,158 197,211l0 0 0 0c0,0 4,2 11,5 51,23 267,126 497,289 132,94 322,164 486,212 83,24 159,42 219,55 59,12 102,18 119,19l1 -6 -1 6c0,0 111,18 199,18 11,0 21,0 31,-1 3,0 7,0 10,0 80,0 144,61 156,141l0 0 0 0 0 1c1,2 4,15 4,31 0,21 -5,48 -25,71 -20,22 -55,40 -119,41l-5 0 0 5 -1 0c0,1 -3,15 -14,28 -11,13 -28,26 -57,26 -2,0 -5,0 -7,0l0 0 0 0 -1 0c-6,0 -31,-3 -58,-16l-3 -2 -3 3 0 0c-3,2 -31,23 -78,23 -6,0 -12,0 -18,-1l0 0 -1 0 0 0c-4,0 -18,0 -35,-4 -16,-4 -34,-12 -46,-27l-4 -6 -5 5 0 0c-1,1 -28,27 -90,27 -30,0 -70,-6 -119,-26l-9 -4 1 10 3 0 -3 0 0 0 3 0 -3 0 0 0c0,0 -1,2 -2,4 -3,3 -10,9 -27,14 -16,4 -42,8 -82,8l0 6 1 -6c0,0 -81,-6 -168,-6 -43,0 -89,1 -126,7l1 6 -1 -6c0,0 -3,0 -10,0 -19,2 -64,5 -125,5 -72,0 -164,-4 -258,-19l0 0 0 0c0,0 -7,-1 -21,-3 -43,-6 -146,-22 -299,-50l0 0 0 0c0,0 -162,-21 -332,-21 -72,0 -145,4 -208,14l1 6 -1 -6 -227 29 1 6 -1 -6c0,0 -3,0 -9,0 -17,2 -59,4 -113,4 -65,0 -148,-4 -225,-18 -78,-14 -151,-39 -197,-81l-4 4 5 -3 0 0c-2,-3 -45,-70 -45,-209 0,-30 2,-64 7,-101l-6 0 6 1 0 -1c1,-7 16,-76 98,-326l1 -1 0 0c0,0 34,-184 90,-617l0 0 7 -216 971 -2 0 -6 -6 1 6 -1 0 -6 -983 2 -7 227 6 1 -6 -1c-28,216 -51,370 -66,470 -8,50 -14,86 -18,110 -4,24 -6,36 -6,36l6 1 -6 -2c-88,267 -99,328 -99,329l0 0 0 0c-5,37 -7,71 -7,102 0,146 47,215 47,216l1 0 0 1c49,44 124,69 202,84 79,14 162,18 228,18 72,0 123,-4 123,-4l0 0 227 -29 1 0c62,-10 135,-14 206,-14 84,0 167,5 229,10 30,3 56,5 73,7 18,2 28,4 28,4l1 -6 -1 6c204,38 320,53 320,53l1 -6 -1 6c95,15 188,19 260,19 81,0 136,-5 136,-5l0 0 0 0c37,-6 82,-7 125,-7 43,0 85,1 116,3 15,1 28,2 37,2 9,1 14,1 14,1l0 0 0 0c58,0 88,-8 104,-16 8,-4 13,-9 16,-13 2,-4 3,-8 3,-9l0 -1 -6 1 -3 5c51,20 92,27 124,27 67,0 98,-29 99,-30l-5 -5 -4 4c14,18 35,27 52,32 18,4 33,4 38,4l1 0 -1 -6 0 6c7,1 13,1 19,1 54,0 85,-26 86,-26l-4 -5 -3 6c32,16 63,17 64,17l0 -6 0 6c2,0 4,0 7,0 34,0 56,-16 68,-32 12,-16 15,-31 15,-32l-6 -1 0 6c66,-1 106,-20 128,-45 23,-26 28,-56 28,-79 0,-20 -4,-34 -4,-35l-6 2 6 -1c-13,-85 -82,-151 -168,-151 -4,0 -7,0 -11,0 -9,1 -20,1 -30,1 -43,0 -93,-4 -131,-9 -19,-2 -36,-4 -48,-6 -12,-2 -18,-3 -19,-3l0 0 0 0c-16,0 -59,-7 -118,-19 -178,-37 -504,-126 -700,-265 -264,-187 -510,-295 -510,-295l-2 6 2 -6c-97,-51 -156,-135 -191,-206 -18,-35 -29,-68 -36,-91 -4,-12 -6,-21 -8,-28 0,-3 -1,-5 -1,-7 -1,-2 -1,-3 -1,-3l-6 2 6 -1c-8,-78 -15,-158 -19,-219 -2,-31 -3,-57 -5,-75 -1,-18 -1,-28 -1,-28l0 -6 -6 0 0 6z"/>
  </g>
 </g>
</svg>
