<?xml version="1.0" encoding="UTF-8"?>
<!DOCTYPE svg PUBLIC "-//W3C//DTD SVG 1.1//EN" "http://www.w3.org/Graphics/SVG/1.1/DTD/svg11.dtd">
<!-- Creator: CorelDRAW X8 -->
<svg xmlns="http://www.w3.org/2000/svg" xml:space="preserve" width="53.3184mm" height="64.2115mm" version="1.1" style="shape-rendering:geometricPrecision; text-rendering:geometricPrecision; image-rendering:optimizeQuality; fill-rule:evenodd; clip-rule:evenodd"
viewBox="0 0 4219 5081"
 xmlns:xlink="http://www.w3.org/1999/xlink">
 <defs>
  <style type="text/css">
   <![CDATA[
    .str2 {stroke:#88CCF2;stroke-width:35.0528}
    .str1 {stroke:#BFBFBF;stroke-width:23.3659}
    .str0 {stroke:#BFBFBF;stroke-width:51.9304}
    .fil0 {fill:none}
   ]]>
  </style>
 </defs>
 <g id="Слой_x0020_1">
  <metadata id="CorelCorpID_0Corel-Layer"/>
  <path class="fil0 str0" d="M2160 5055c-319,-9 -827,-35 -982,-45 -396,-27 -749,-81 -903,-133 -122,-260 -236,-614 -249,-977 -2,-57 8,-76 8,-134 0,-67 48,-150 50,-218 23,-650 488,-2343 633,-2579 41,-67 427,55 509,70 624,113 514,-54 985,-50"/>
  <path class="fil0 str1" d="M140 4550c1421,330 2533,159 3924,23"/>
  <path class="fil0 str1" d="M22 3906c319,45 661,81 953,70 374,-13 745,-78 1151,-64 625,20 1411,149 2055,-19"/>
  <path class="fil0 str0" d="M609 1224c711,129 2202,170 2964,17"/>
  <path class="fil0 str0" d="M717 969c-293,-274 313,-1335 146,-509 -40,141 -158,248 74,509"/>
  <path class="fil0 str2" d="M3394 18c-44,692 -125,1304 -9,1592 30,73 58,183 83,294 22,100 -18,287 -3,363 85,447 145,522 309,999 253,738 -276,1087 -1498,1087 -928,0 -1654,-41 -1812,-413 -30,-101 -74,-325 -56,-536 38,-433 258,-1013 345,-1552 13,-76 29,-157 53,-243 25,-93 108,-429 121,-542 47,-390 -38,-650 -59,-1049l2526 0z"/>
  <path class="fil0 str2" d="M2414 1391c9,386 35,747 80,1082"/>
  <path class="fil0 str2" d="M1938 1440c2,341 -28,628 -89,863"/>
  <path class="fil0 str0" d="M2160 5055c319,-11 872,-36 1017,-45 396,-27 598,-47 753,-99 124,-261 234,-605 250,-970 2,-48 21,-111 8,-158 -10,-38 -49,-60 -53,-101 -121,-1115 -706,-2700 -613,-2765 -22,-58 -70,94 -331,141 -168,30 -307,26 -518,25 -64,-1 -244,-66 -462,-94"/>
  <path class="fil0 str1" d="M4092 3526c-4,196 -94,206 -140,211 -900,82 -1265,-106 -1861,-106 -644,0 -1206,278 -1861,106 -45,-12 -136,-15 -140,-211"/>
  <path class="fil0 str0" d="M3528 945c4,-100 5,-197 1,-291 -55,-398 -97,-411 -125,-39 9,147 -11,273 -60,380"/>
 </g>
</svg>
