<?xml version="1.0" encoding="UTF-8"?>
<!DOCTYPE svg PUBLIC "-//W3C//DTD SVG 1.1//EN" "http://www.w3.org/Graphics/SVG/1.1/DTD/svg11.dtd">
<!-- Creator: CorelDRAW X8 -->
<svg xmlns="http://www.w3.org/2000/svg" xml:space="preserve" width="118.571mm" height="68.7387mm" version="1.1" style="shape-rendering:geometricPrecision; text-rendering:geometricPrecision; image-rendering:optimizeQuality; fill-rule:evenodd; clip-rule:evenodd"
viewBox="0 0 3434 1991"
 xmlns:xlink="http://www.w3.org/1999/xlink">
 <defs>
  <style type="text/css">
   <![CDATA[
    .str0 {stroke:#7F7F7F;stroke-width:8.55161;stroke-opacity:0.501961}
    .str1 {stroke:#7F7F7F;stroke-width:19.0058;stroke-opacity:0.501961}
    .str2 {stroke:#38AAE9;stroke-width:12.8289;stroke-opacity:0.600000}
    .str3 {stroke:#38AAE9;stroke-width:12.8289}
    .fil2 {fill:none}
    .fil0 {fill:none}
    .fil1 {fill:none}
   ]]>
  </style>
 </defs>
 <g id="Слой_x0020_1">
  <metadata id="CorelCorpID_0Corel-Layer"/>
  <path class="fil0 str0" d="M3406 1736c0,0 -40,-14 -183,66 0,0 -87,65 -264,78 -177,13 -551,12 -551,12l-1823 -18c0,0 -402,4 -562,-76"/>
  <path class="fil0 str0" d="M3390 1648c0,0 -5,36 -161,48 -158,11 -739,38 -739,38 0,0 -360,-8 -884,-65 -525,-57 -891,-131 -1595,-112"/>
  <path class="fil0 str0" d="M3345 1597c0,0 6,57 -814,72 0,0 -670,-11 -872,-57 0,0 -1313,-165 -1648,-116"/>
  <path class="fil0 str1" d="M181 563c0,0 -14,-59 47,-51 0,0 126,38 247,-27 0,0 325,-234 434,-260 0,0 17,-169 285,-209 0,0 142,-21 154,13 0,0 9,17 0,29 0,0 96,64 96,211 0,0 31,-14 46,5 0,0 99,120 87,263 0,0 57,11 57,77l14 18c0,0 2,-33 49,11 0,0 29,23 29,55 0,0 72,8 78,93 0,0 72,6 83,42 0,0 74,17 107,89 0,0 89,-17 131,69 0,0 57,-19 159,61 0,0 90,34 124,62 34,29 103,65 167,82 0,0 61,6 61,48 0,0 300,108 561,140 0,0 135,-4 154,215 0,0 53,4 53,122 0,0 78,136 -71,199 0,0 -115,51 -368,61 0,0 -17,-38 -36,0l-25 0c0,0 -13,-19 -32,0l-33 0c0,0 -13,-19 -28,0l-23 0c0,0 -13,-38 -25,0l-26 0c0,0 -21,-19 -33,0l-28 0c0,0 -17,-19 -36,0l-23 0c0,0 -25,-38 -38,0l-21 0c0,0 -19,-19 -28,0l-29 0c0,0 -15,-19 -28,0l-27 0c0,0 -15,-19 -27,0l-28 0c0,0 -13,-19 -31,0l-30 0c0,0 -13,-19 -30,0l-27 0c0,0 -13,-19 -28,0l-33 0c0,0 -17,-19 -32,0l-23 0c0,0 -11,-19 -27,0l-24 0c0,0 -19,-19 -38,0l-27 0c0,0 -19,-19 -36,0l-28 0c0,0 -12,-19 -29,0l-28 0c0,0 -14,-19 -37,0l-22 0c0,0 -12,-19 -33,0l-36 0c0,0 -13,-19 -30,0l-25 0c0,0 -13,-19 -23,0l-23 0c0,0 -17,-19 -34,0l-24 0c0,0 -18,-19 -33,0l-26 0c0,0 -19,-19 -31,0l-28 0c0,0 -19,-19 -27,0l-28 0c0,0 -10,-19 -29,0l-36 0c0,0 -19,-19 -28,0l-33 0c0,0 -11,-19 -26,0l-29 0c0,0 -13,-19 -34,0l-27 0c0,0 -13,-19 -36,0l-28 0c0,0 -21,-19 -35,0l-28 0c0,0 -25,-19 -42,0l-19 0c0,0 -11,-19 -26,0l-31 0c0,0 -15,-19 -32,0l-21 0c0,0 -11,-19 -36,0l-23 0c0,0 -15,-19 -34,0l-21 0c0,0 -10,-19 -36,0l-29 0c0,0 -24,-19 -47,0l-17 0c0,0 -10,-19 -35,0l-26 0c0,0 -2,-38 -31,0l-26 0c0,0 -12,-38 -31,0l-32 0c0,0 -4,-21 -32,-4l-21 -9c0,0 -8,-25 -32,-6l-27 0c0,0 -10,-23 -30,-2l-27 0c0,0 -15,-11 -19,9 0,0 -198,-1 -276,-53 0,0 -34,-264 -19,-463 0,0 12,-306 97,-622 2,-2 38,-142 71,-268zm1022 -266c-129,0 -127,116 -127,116 -27,409 285,458 285,458 0,0 137,-8 224,103 89,110 146,95 146,95 0,0 78,-29 183,51 106,80 129,74 222,82 93,9 293,53 293,53 188,63 199,-15 199,-15m-1719 -1021c22,25 62,10 62,10 63,-12 261,15 319,68 59,53 78,32 78,32 40,-38 75,-30 75,-30l0 -40m-97 -205c0,0 -50,-27 -225,28 0,0 -159,44 -150,149m405 -147c0,0 -30,-4 -63,33 0,0 46,34 63,114 0,0 36,-14 63,-2m-124 89l-120 38c0,0 -55,48 -38,156 25,140 88,131 88,131 0,0 247,-95 329,-110 13,-2 -118,121 -162,176 -53,71 -21,94 -21,94 46,22 71,-16 71,-16 100,-152 169,-178 169,-178m-377 -272c0,0 16,-44 -262,-95 0,0 -30,-10 -85,15 0,0 -130,44 -312,202 0,0 -106,114 -221,116 0,0 -146,17 -195,-12m1606 318c53,28 116,0 116,0m-84 13c0,0 21,-36 -19,-82m-171 -99c0,0 -17,-45 -74,-36m167 156c0,0 2,-21 -19,-68m692 340c0,0 -23,116 26,129 0,0 65,30 55,-76m-592 -325c15,44 26,38 26,120 0,81 21,78 21,78 63,41 59,-111 59,-111 66,29 51,88 51,158 0,70 55,61 55,61 61,-19 25,-150 25,-150m6 30c0,0 74,-21 85,48 0,0 -2,87 44,78 0,0 44,0 30,-93m103 100c0,0 -47,-45 -99,-66m-300 -139c11,21 51,38 51,38m-393 -355c2,66 -53,148 -53,148 -40,68 21,85 21,85 76,-3 110,-167 110,-167 0,0 9,59 5,101 -1,42 -41,95 -41,95 -25,72 9,95 9,95 80,51 103,-196 103,-196m-618 -199c-19,60 0,81 0,81 17,40 55,27 55,27 0,0 6,4 0,17 -11,27 15,30 15,30 59,19 94,-49 94,-49 28,25 76,0 76,0m129 -133c-129,-4 -205,137 -205,137m-109 0c164,-15 116,-97 116,-97"/>
  <path class="fil1 str2" d="M1999 1099c-260,-184 -503,-291 -503,-291 -196,-102 -238,-334 -238,-334 -17,-154 -25,-319 -25,-319l-965 1 -8 219c-55,428 -89,608 -89,608 -87,264 -97,325 -97,325 -28,213 40,310 40,310 145,131 542,95 542,95l224 -29c207,-36 532,6 532,6 202,38 316,53 316,53 197,33 389,14 389,14 0,0 82,-2 331,-76 0,0 78,-25 294,24 219,50 555,27 441,-230 -15,-32 -83,-79 -119,-79 -17,0 -132,-4 -132,-4 0,0 -572,-15 -1134,-428"/>
  <path class="fil2 str3" d="M471 949c29,34 61,70 135,70 74,0 97,-26 135,-70"/>
 </g>
</svg>
