<?xml version="1.0" encoding="UTF-8"?>
<!DOCTYPE svg PUBLIC "-//W3C//DTD SVG 1.1//EN" "http://www.w3.org/Graphics/SVG/1.1/DTD/svg11.dtd">
<!-- Creator: CorelDRAW X8 -->
<svg xmlns="http://www.w3.org/2000/svg" xml:space="preserve" width="53.3184mm" height="64.2115mm" version="1.1" style="shape-rendering:geometricPrecision; text-rendering:geometricPrecision; image-rendering:optimizeQuality; fill-rule:evenodd; clip-rule:evenodd"
viewBox="0 0 4213 5073"
 xmlns:xlink="http://www.w3.org/1999/xlink">
 <defs>
  <style type="text/css">
   <![CDATA[
    .str2 {stroke:#88CCF2;stroke-width:35.0011}
    .str1 {stroke:#BFBFBF;stroke-width:23.3314}
    .str0 {stroke:#BFBFBF;stroke-width:51.8537}
    .fil0 {fill:none}
   ]]>
  </style>
 </defs>
 <g id="Слой_x0020_1">
  <metadata id="CorelCorpID_0Corel-Layer"/>
  <path class="fil0 str0" d="M2056 5047c318,-9 825,-34 981,-45 395,-26 747,-80 901,-132 121,-259 235,-614 248,-976 2,-56 -7,-76 -7,-134 0,-66 -48,-150 -51,-217 -22,-650 -487,-2340 -631,-2576 -41,-66 -427,56 -509,70 -623,113 -513,-53 -984,-49"/>
  <path class="fil0 str1" d="M4073 4543c-1419,329 -2530,159 -3918,23"/>
  <path class="fil0 str1" d="M4191 3900c-319,45 -660,81 -952,71 -373,-14 -744,-78 -1149,-65 -624,21 -1409,149 -2052,-18"/>
  <path class="fil0 str0" d="M3605 1222c-711,129 -2199,170 -2960,17"/>
  <path class="fil0 str0" d="M3497 967c293,-273 -313,-1333 -146,-508 40,141 158,248 -74,509"/>
  <path class="fil0 str2" d="M823 18c44,691 126,1302 9,1589 -29,74 -58,183 -82,294 -22,100 17,287 3,363 -86,446 -145,521 -308,997 -254,737 274,1086 1495,1086 926,0 1652,-42 1809,-413 30,-101 75,-324 56,-535 -37,-432 -257,-1011 -345,-1550 -12,-76 -29,-157 -52,-243 -25,-92 -108,-428 -121,-541 -46,-389 38,-649 59,-1047l-2523 0z"/>
  <path class="fil0 str2" d="M1802 1389c-9,386 -35,746 -79,1080"/>
  <path class="fil0 str2" d="M2277 1438c-2,340 28,627 90,862"/>
  <path class="fil0 str0" d="M2056 5047c-319,-10 -870,-35 -1015,-45 -396,-26 -598,-47 -752,-99 -125,-260 -234,-603 -250,-967 -2,-49 -22,-112 -9,-159 11,-38 50,-60 54,-100 121,-1114 705,-2696 611,-2761 23,-58 70,93 332,141 167,30 306,25 517,24 63,0 244,-65 460,-93"/>
  <path class="fil0 str1" d="M127 3520c4,196 93,207 140,211 898,83 1263,-105 1858,-105 643,0 1204,277 1858,105 45,-12 136,-15 140,-211"/>
  <path class="fil0 str0" d="M690 943c-4,-100 -5,-196 -1,-290 55,-397 96,-410 125,-39 -9,147 11,273 59,380"/>
 </g>
</svg>
