<?xml version="1.0" encoding="UTF-8"?>
<!DOCTYPE svg PUBLIC "-//W3C//DTD SVG 1.1//EN" "http://www.w3.org/Graphics/SVG/1.1/DTD/svg11.dtd">
<!-- Creator: CorelDRAW X8 -->
<svg xmlns="http://www.w3.org/2000/svg" xml:space="preserve" width="118.571mm" height="68.7387mm" version="1.1" style="shape-rendering:geometricPrecision; text-rendering:geometricPrecision; image-rendering:optimizeQuality; fill-rule:evenodd; clip-rule:evenodd"
viewBox="0 0 3434 1991"
 xmlns:xlink="http://www.w3.org/1999/xlink">
 <defs>
  <style type="text/css">
   <![CDATA[
    .str0 {stroke:#7F7F7F;stroke-width:8.55166;stroke-opacity:0.501961}
    .str1 {stroke:#7F7F7F;stroke-width:19.0059;stroke-opacity:0.501961}
    .str2 {stroke:#38AAE9;stroke-width:12.8289;stroke-opacity:0.600000}
    .str3 {stroke:#38AAE9;stroke-width:12.8289}
    .fil2 {fill:none}
    .fil0 {fill:none}
    .fil1 {fill:none}
   ]]>
  </style>
 </defs>
 <g id="Слой_x0020_1">
  <metadata id="CorelCorpID_0Corel-Layer"/>
  <path class="fil0 str0" d="M28 1736c0,0 40,-14 182,66 0,0 88,65 265,78 176,13 551,12 551,12l1822 -18c0,0 403,4 563,-76"/>
  <path class="fil0 str0" d="M43 1648c0,0 6,36 162,48 158,11 739,38 739,38 0,0 359,-8 884,-65 524,-57 891,-131 1594,-112"/>
  <path class="fil0 str0" d="M89 1597c0,0 -6,57 813,72 0,0 671,-11 873,-57 0,0 1313,-165 1647,-116"/>
  <path class="fil0 str1" d="M3253 563c0,0 13,-59 -47,-51 0,0 -126,38 -247,-27 0,0 -325,-234 -434,-260 0,0 -17,-169 -285,-209 0,0 -142,-21 -154,13 0,0 -9,17 0,29 0,0 -97,64 -97,211 0,0 -30,-14 -45,5 0,0 -99,120 -88,263 0,0 -57,11 -57,77l-13 18c0,0 -2,-33 -49,11 0,0 -29,23 -29,55 0,0 -72,8 -78,93 0,0 -72,6 -84,42 0,0 -74,17 -106,89 0,0 -89,-17 -131,69 0,0 -57,-19 -160,61 0,0 -89,34 -123,62 -34,29 -103,65 -167,82 0,0 -61,6 -61,48 0,0 -301,108 -561,140 0,0 -135,-4 -154,215 0,0 -53,4 -53,122 0,0 -78,136 70,199 0,0 116,51 369,61 0,0 17,-38 36,0l25 0c0,0 13,-19 32,0l32 0c0,0 14,-19 29,0l23 0c0,0 13,-38 24,0l27 0c0,0 21,-19 32,0l29 0c0,0 17,-19 36,0l23 0c0,0 24,-38 38,0l21 0c0,0 19,-19 28,0l29 0c0,0 15,-19 28,0l27 0c0,0 15,-19 26,0l29 0c0,0 13,-19 30,0l31 0c0,0 13,-19 30,0l27 0c0,0 13,-19 28,0l33 0c0,0 17,-19 32,0l23 0c0,0 11,-19 26,0l25 0c0,0 19,-19 38,0l27 0c0,0 19,-19 36,0l28 0c0,0 12,-19 29,0l28 0c0,0 13,-19 36,0l23 0c0,0 12,-19 32,0l37 0c0,0 13,-19 30,0l25 0c0,0 13,-19 22,0l23 0c0,0 17,-19 34,0l25 0c0,0 17,-19 32,0l27 0c0,0 19,-19 30,0l29 0c0,0 19,-19 27,0l28 0c0,0 10,-19 29,0l36 0c0,0 19,-19 28,0l33 0c0,0 11,-19 26,0l29 0c0,0 13,-19 34,0l26 0c0,0 14,-19 37,0l28 0c0,0 21,-19 34,0l29 0c0,0 24,-19 42,0l19 0c0,0 11,-19 26,0l31 0c0,0 15,-19 32,0l21 0c0,0 11,-19 36,0l23 0c0,0 15,-19 34,0l21 0c0,0 9,-19 36,0l28 0c0,0 25,-19 48,0l17 0c0,0 10,-19 34,0l27 0c0,0 2,-38 30,0l27 0c0,0 11,-38 30,0l33 0c0,0 3,-21 32,-4l21 -9c0,0 7,-25 32,-6l27 0c0,0 9,-23 30,-2l27 0c0,0 15,-11 19,9 0,0 197,-1 275,-53 0,0 35,-264 19,-463 0,0 -11,-306 -97,-622 -1,-2 -38,-142 -70,-268zm-1022 -266c129,0 127,116 127,116 27,409 -285,458 -285,458 0,0 -137,-8 -224,103 -90,110 -147,95 -147,95 0,0 -78,-29 -182,51 -107,80 -129,74 -222,82 -94,9 -293,53 -293,53 -188,63 -200,-15 -200,-15m1720 -1021c-23,25 -62,10 -62,10 -63,-12 -261,15 -320,68 -59,53 -78,32 -78,32 -40,-38 -74,-30 -74,-30l0 -40m97 -205c0,0 50,-27 224,28 0,0 160,44 151,149m-405 -147c0,0 30,-4 62,33 0,0 -45,34 -62,114 0,0 -36,-14 -63,-2m124 89l119 38c0,0 55,48 38,156 -24,140 -87,131 -87,131 0,0 -247,-95 -329,-110 -13,-2 118,121 162,176 53,71 21,94 21,94 -46,22 -71,-16 -71,-16 -101,-152 -169,-178 -169,-178m376 -272c0,0 -15,-44 263,-95 0,0 30,-10 85,15 0,0 129,44 312,202 0,0 106,114 220,116 0,0 147,17 196,-12m-1606 318c-53,28 -116,0 -116,0m84 13c0,0 -21,-36 19,-82m171 -99c0,0 17,-45 74,-36m-167 156c0,0 -2,-21 19,-68m-692 340c0,0 23,116 -27,129 0,0 -64,30 -55,-76m593 -325c-15,44 -26,38 -26,120 0,81 -21,78 -21,78 -63,41 -59,-111 -59,-111 -67,29 -52,88 -52,158 0,70 -55,61 -55,61 -60,-19 -24,-150 -24,-150m-6 30c0,0 -74,-21 -86,48 0,0 2,87 -43,78 0,0 -44,0 -31,-93m-102 100c0,0 47,-45 98,-66m301 -139c-12,21 -52,38 -52,38m394 -355c-2,66 53,148 53,148 40,68 -21,85 -21,85 -76,-3 -110,-167 -110,-167 0,0 -10,59 -6,101 2,42 42,95 42,95 25,72 -9,95 -9,95 -80,51 -103,-196 -103,-196m618 -199c19,60 0,81 0,81 -18,40 -56,27 -56,27 0,0 -5,4 0,17 12,27 -15,30 -15,30 -59,19 -93,-49 -93,-49 -28,25 -76,0 -76,0m-129 -133c129,-4 205,137 205,137m108 0c-163,-15 -115,-97 -115,-97"/>
  <path class="fil1 str2" d="M1434 1099c261,-184 504,-291 504,-291 196,-102 238,-334 238,-334 17,-154 24,-319 24,-319l966 1 7 219c55,428 90,608 90,608 87,264 97,325 97,325 28,213 -40,310 -40,310 -145,131 -542,95 -542,95l-224 -29c-207,-36 -532,6 -532,6 -202,38 -316,53 -316,53 -198,33 -389,14 -389,14 0,0 -82,-2 -331,-76 0,0 -78,-25 -295,24 -218,50 -555,27 -441,-230 16,-32 84,-79 120,-79 17,0 131,-4 131,-4 0,0 572,-15 1135,-428"/>
  <path class="fil2 str3" d="M2962 949c-28,34 -60,70 -135,70 -74,0 -97,-26 -135,-70"/>
 </g>
</svg>
