<?xml version="1.0" encoding="UTF-8"?>
<!DOCTYPE svg PUBLIC "-//W3C//DTD SVG 1.1//EN" "http://www.w3.org/Graphics/SVG/1.1/DTD/svg11.dtd">
<!-- Creator: CorelDRAW X8 -->
<svg xmlns="http://www.w3.org/2000/svg" xml:space="preserve" width="53.8913mm" height="140.211mm" version="1.1" style="shape-rendering:geometricPrecision; text-rendering:geometricPrecision; image-rendering:optimizeQuality; fill-rule:evenodd; clip-rule:evenodd"
viewBox="0 0 5654 14709"
 xmlns:xlink="http://www.w3.org/1999/xlink">
 <defs>
  <style type="text/css">
   <![CDATA[
    .str0 {stroke:#A2A2A2;stroke-width:31.0839;stroke-opacity:0.988235}
    .str2 {stroke:#A2A2A2;stroke-width:44.4071}
    .str1 {stroke:#979797;stroke-width:31.0839}
    .fil1 {fill:none}
    .fil2 {fill:white}
    .fil0 {fill:white;fill-opacity:0.988235}
   ]]>
  </style>
 </defs>
 <g id="Слой_x0020_1">
  <metadata id="CorelCorpID_0Corel-Layer"/>
  <g id="_1315420400">
   <path class="fil0 str0" d="M5374 3424c-111,-386 -225,-1147 -1041,-2367 -817,-1220 -2582,-1571 -3594,63 -1013,1635 -776,4773 -405,5625 372,853 4486,2691 4486,2691l217 -41c0,0 1088,-3577 337,-5971z"/>
   <path class="fil0 str0" d="M5151 3726c-102,-403 -207,-1197 -957,-2471 -751,-1274 -2374,-1640 -3305,66 -931,1706 -755,4767 -535,5890 33,270 275,1136 0,2708 -186,527 -246,1070 -246,1499 608,103 1493,-1097 2538,-1207 744,-79 1558,1002 2413,949 -91,-649 -81,-638 -74,-1283 306,-1798 856,-3651 166,-6151l0 0z"/>
   <path class="fil0 str0" d="M4167 5175c0,0 554,269 685,88 65,-88 62,-142 0,-447 -63,-306 -364,-2740 -1102,-3650 -162,-213 -1322,-1403 -2412,50 -152,232 -424,782 -695,2238 -80,380 -262,1252 -262,1809 0,69 46,238 226,181 74,-34 351,-104 351,-104l70 -547 124 -606 275 -258 592 -230 963 -6c0,0 722,189 722,226 0,37 316,510 316,510l147 746 0 0z"/>
   <path class="fil0 str0" d="M3854 4829c-48,71 -398,90 -1165,341 -355,116 -716,224 -1195,411 -99,56 -155,-86 -159,-126 -7,-81 -47,-122 81,-197 26,-25 512,-241 1172,-449 313,-99 609,-175 1063,-266 100,-15 150,-15 215,96 9,24 49,121 -12,190l0 0z"/>
   <path class="fil0 str0" d="M3796 5532c-78,37 -388,-128 -1174,-308 -364,-83 -730,-176 -1237,-263 -113,-3 -88,-153 -70,-189 35,-73 22,-129 170,-127 35,-9 563,57 1236,218 319,76 612,164 1048,320 93,38 137,64 135,193 -5,25 -20,129 -108,156l0 0zm274 2143c-157,37 -556,-313 -1620,-528 -471,-95 -765,-144 -1492,-147 -145,-8 -91,-169 -71,-204 49,-78 -54,-144 135,-136 44,-7 788,-60 1657,127 411,88 893,297 1327,505 249,114 143,126 150,218 -5,24 23,141 -86,165l0 0z"/>
   <path class="fil0 str0" d="M4202 7001c-123,104 -632,-32 -1683,241 -464,121 -750,206 -1404,527 -134,57 -146,-93 -143,-134 8,-95 -112,-110 61,-187 36,-26 680,-405 1542,-618 409,-101 934,-121 1417,-121 274,0 164,55 210,138 7,24 88,83 0,154l0 0z"/>
   <path class="fil0 str0" d="M2602 4267c-292,-2 -531,22 -625,38 -326,74 -199,654 -199,716 86,390 -111,670 -162,777 -214,382 -143,645 -107,774 81,356 -132,690 -186,826 -146,293 -57,884 -57,1023 78,845 -357,1365 -440,1455 -398,357 -581,1535 -679,1907 -80,-551 -31,-1146 6,-1248 373,-775 446,-1829 446,-1875 0,-47 -26,-474 -26,-556 0,-326 70,-529 93,-615 91,-274 58,-395 43,-511 -114,-729 -65,-800 -47,-862 298,-742 292,-909 292,-981 -32,-356 18,-678 32,-728 249,-957 1479,-902 1614,-899l0 0c1523,26 1530,858 1547,950 74,791 243,1123 274,1202 237,476 211,630 211,669 -155,696 -64,1241 -43,1338 82,503 27,574 6,643 -138,345 -168,595 -168,823 0,385 153,643 205,772 277,506 395,977 445,1310 45,297 -10,530 -10,530 0,0 -1,-477 -62,-676 -133,-500 -236,-695 -584,-1193 -478,-657 -449,-1283 -449,-1473 0,-112 53,-340 77,-479 57,-335 -24,-499 -106,-646 -204,-328 -161,-371 -161,-435 35,-136 70,-453 70,-510 0,-356 -140,-513 -173,-554 -246,-265 -126,-670 -108,-913 58,-417 -171,-515 -240,-531 -245,-49 -502,-66 -729,-68l0 0 0 0z"/>
   <path class="fil0 str0" d="M3975 5565c-55,71 -424,82 -1242,319 -379,110 -764,213 -1277,391 -107,54 -264,-6 -266,-46 0,-94 -315,-62 -176,-135 28,-25 928,-377 1632,-574 333,-93 648,-164 1130,-246 235,-32 171,42 216,123 8,25 50,100 -17,168l0 0z"/>
   <path class="fil0 str0" d="M3976 6328c-87,31 -425,-234 -1290,-462 -400,-106 -802,-221 -1360,-339 -125,-11 -66,-149 -46,-184 49,-79 -34,-148 129,-137 39,-6 651,100 1391,303 350,96 904,347 1373,612 152,111 -35,66 -37,159 -7,25 -63,25 -160,48l0 0z"/>
   <path class="fil0 str0" d="M4305 6383c-123,104 -632,-32 -1683,241 -465,121 -750,206 -1404,527 -134,57 -146,-93 -144,-134 9,-95 -112,-110 61,-187 36,-25 681,-405 1543,-618 409,-101 934,-121 1417,-120 274,0 164,55 210,137 7,24 88,83 0,154l0 0z"/>
   <path class="fil0 str0" d="M4108 7083c-156,37 -555,-313 -1619,-528 -471,-96 -765,-144 -1493,-147 -145,-8 -90,-169 -71,-204 49,-78 -53,-144 136,-136 44,-7 788,-60 1656,127 412,88 893,297 1328,505 249,114 143,126 149,217 -4,25 23,142 -86,166zm-164 -2227c-98,72 -932,-288 -2584,-7 -108,19 -127,-36 -118,-72 13,-47 64,-215 264,-291 46,-21 1034,-307 2231,23 86,28 210,94 234,213 0,24 31,107 -27,134z"/>
   <path class="fil1 str1" d="M5387 7567l-89 67c0,0 -30,-1214 -665,-1356m-3995 91c0,0 -228,-48 -353,402"/>
   <path class="fil1 str2" d="M5067 11745c0,104 -5,207 -13,308 -129,1480 -1175,2634 -2447,2634 -1359,0 -2460,-1317 -2460,-2942"/>
   <path class="fil1 str2" d="M4911 11157c0,103 -5,206 -13,307 -120,1480 -1100,2634 -2291,2634 -1272,0 -2304,-1317 -2304,-2941"/>
  </g>
  <g id="_1285683072">
   <path class="fil2 str2" d="M2370 14175c0,0 -1409,-242 -1409,-2111 0,-215 -38,-503 -114,-611 -102,-201 -227,-578 -71,-925 37,-96 91,-556 138,-1054 47,-499 98,-781 131,-1607 0,-952 2,-704 -161,-1968 -37,-542 -334,-1081 -58,-2329 88,-400 -21,-907 -46,-1163 -25,-257 25,-962 331,-1416 95,-135 326,-434 799,-339 92,19 608,235 467,871 -141,637 -153,1330 -153,1647 49,0 52,135 180,-1060 23,-186 38,-1231 600,-1044 122,32 564,198 349,750 -159,408 -342,1280 -191,1581 -19,-215 68,-1116 254,-1442 118,-234 195,-279 373,-279 65,0 670,198 323,911 -115,311 -270,983 -115,1274 0,-177 7,-726 116,-1059 79,-327 235,-351 438,-241 104,83 409,241 193,1171 -121,352 -100,728 -13,942 -34,-281 6,-925 127,-1176 68,-58 480,7 544,735 0,441 196,702 54,1579 -54,532 -99,1084 -310,1973 -468,2274 -760,2091 -954,3346 -195,1407 126,2275 -1119,2917 -196,127 -703,127 -703,127z"/>
   <path class="fil2 str2" d="M1387 884c0,0 184,-108 457,-48 110,26 384,125 422,278 -38,197 -132,462 -132,462 0,0 -490,23 -926,-236 21,-190 179,-456 179,-456l0 0zm1392 387c0,0 122,-77 305,-22 94,25 259,97 263,190 -22,95 -54,216 -54,216 0,0 -372,-22 -592,-168 13,-93 78,-216 78,-216zm899 553c0,0 111,-59 263,3 78,29 214,105 209,187 -26,83 -63,188 -63,188 0,0 -315,-47 -492,-192 19,-82 83,-186 83,-186l0 0zm652 811c0,0 85,-62 197,-5 59,27 158,99 152,180 -22,84 -53,189 -53,189 0,0 -236,-37 -365,-176 17,-82 69,-188 69,-188l0 0zm539 993c0,0 51,-46 131,-20 40,11 113,47 117,98 -7,54 -18,121 -18,121 0,0 -160,-2 -258,-77 4,-52 28,-122 28,-122l0 0z"/>
  </g>
 </g>
</svg>
