<?xml version="1.0" encoding="UTF-8"?>
<!DOCTYPE svg PUBLIC "-//W3C//DTD SVG 1.1//EN" "http://www.w3.org/Graphics/SVG/1.1/DTD/svg11.dtd">
<!-- Creator: CorelDRAW X8 -->
<svg xmlns="http://www.w3.org/2000/svg" xml:space="preserve" width="53.8913mm" height="140.211mm" version="1.1" style="shape-rendering:geometricPrecision; text-rendering:geometricPrecision; image-rendering:optimizeQuality; fill-rule:evenodd; clip-rule:evenodd"
viewBox="0 0 5654 14710"
 xmlns:xlink="http://www.w3.org/1999/xlink">
 <defs>
  <style type="text/css">
   <![CDATA[
    .str0 {stroke:#A2A2A2;stroke-width:31.0855;stroke-opacity:0.988235}
    .str2 {stroke:#A2A2A2;stroke-width:44.4093}
    .str1 {stroke:#979797;stroke-width:31.0855}
    .fil1 {fill:none}
    .fil2 {fill:white}
    .fil0 {fill:white;fill-opacity:0.988235}
   ]]>
  </style>
 </defs>
 <g id="Слой_x0020_1">
  <metadata id="CorelCorpID_0Corel-Layer"/>
  <g id="_1320243472">
   <path class="fil0 str0" d="M280 3424c110,-386 224,-1147 1041,-2367 816,-1220 2582,-1571 3594,63 1013,1635 776,4773 405,5626 -372,852 -4486,2690 -4486,2690l-217 -41c0,0 -1088,-3576 -337,-5971z"/>
   <path class="fil0 str0" d="M503 3726c101,-403 206,-1197 957,-2471 751,-1274 2374,-1640 3305,66 931,1706 755,4767 535,5890 -33,270 -275,1137 0,2708 186,528 246,1071 246,1500 -608,103 -1493,-1098 -2538,-1208 -744,-78 -1559,1003 -2413,950 91,-649 81,-639 73,-1284 -306,-1797 -856,-3651 -165,-6151l0 0z"/>
   <path class="fil0 str0" d="M1487 5175c0,0 -555,269 -685,88 -66,-88 -63,-142 0,-447 62,-305 363,-2740 1102,-3650 162,-213 1322,-1403 2412,50 152,232 424,782 695,2239 80,380 261,1252 261,1808 0,70 -45,238 -226,181 -73,-34 -350,-104 -350,-104l-70 -547 -124 -606 -275 -257 -592 -230 -963 -6c0,0 -722,188 -722,225 0,37 -317,510 -317,510l-146 746 0 0z"/>
   <path class="fil0 str0" d="M1799 4829c49,72 399,90 1165,341 355,116 717,225 1196,411 99,56 155,-86 158,-126 8,-81 47,-122 -81,-197 -25,-25 -512,-241 -1171,-449 -313,-99 -609,-175 -1063,-265 -100,-16 -151,-16 -216,95 -8,25 -49,121 12,190l0 0z"/>
   <path class="fil0 str0" d="M1857 5533c79,36 388,-129 1175,-308 364,-84 729,-176 1236,-263 114,-4 89,-154 71,-190 -35,-73 -22,-129 -171,-127 -34,-8 -563,57 -1235,218 -319,77 -612,164 -1048,320 -94,39 -137,64 -136,193 6,25 21,129 108,157l0 0zm-273 2142c156,37 555,-313 1620,-528 470,-95 765,-144 1492,-146 145,-8 91,-170 71,-204 -49,-79 53,-144 -136,-137 -43,-6 -788,-59 -1656,127 -412,89 -893,297 -1327,505 -250,114 -144,126 -150,218 5,24 -23,141 86,165l0 0z"/>
   <path class="fil0 str0" d="M1451 7001c124,104 633,-32 1683,241 465,121 751,207 1405,527 134,57 145,-93 143,-134 -9,-94 112,-110 -61,-186 -36,-26 -680,-406 -1543,-619 -408,-100 -934,-120 -1416,-120 -274,0 -164,55 -211,137 -6,25 -87,84 0,154l0 0z"/>
   <path class="fil0 str0" d="M3051 4267c293,-2 532,22 625,39 327,74 199,653 199,715 -85,391 112,670 163,777 214,383 142,645 106,775 -80,355 133,689 187,825 146,294 57,884 57,1023 -78,845 357,1366 440,1455 398,357 581,1535 679,1907 80,-550 31,-1145 -6,-1247 -373,-775 -447,-1829 -447,-1876 0,-46 27,-474 27,-555 0,-327 -70,-529 -94,-616 -90,-274 -57,-394 -42,-511 114,-728 65,-799 47,-861 -299,-743 -292,-910 -292,-982 32,-356 -19,-678 -32,-728 -249,-957 -1479,-902 -1614,-899l0 0c-1524,26 -1531,858 -1547,950 -74,791 -244,1124 -274,1203 -238,475 -211,629 -211,668 154,696 63,1241 42,1339 -82,503 -26,573 -5,643 138,344 168,594 168,823 0,384 -154,643 -205,771 -277,506 -396,978 -446,1310 -45,298 11,531 11,531 0,0 0,-477 62,-677 133,-499 236,-694 584,-1192 478,-657 448,-1283 448,-1473 0,-113 -53,-341 -76,-479 -57,-335 24,-500 106,-647 204,-328 161,-370 161,-435 -35,-135 -70,-453 -70,-510 0,-356 140,-512 172,-554 247,-265 126,-670 109,-913 -59,-416 171,-515 240,-531 245,-48 502,-66 728,-68l0 0 0 0z"/>
   <path class="fil0 str0" d="M1679 5565c55,71 423,83 1242,320 379,110 764,212 1277,390 107,54 264,-6 266,-46 0,-93 314,-62 176,-135 -28,-25 -928,-377 -1632,-574 -333,-93 -648,-163 -1130,-246 -235,-32 -171,42 -216,123 -8,25 -50,100 17,168l0 0z"/>
   <path class="fil0 str0" d="M1677 6328c87,32 426,-234 1291,-462 400,-106 802,-221 1360,-339 125,-10 66,-148 46,-183 -49,-80 34,-148 -129,-138 -39,-6 -652,100 -1391,303 -350,96 -905,347 -1373,613 -152,111 35,65 37,159 6,24 62,24 159,47l0 0z"/>
   <path class="fil0 str0" d="M1348 6383c124,104 633,-31 1684,241 464,121 750,207 1404,527 134,57 146,-93 143,-134 -9,-94 112,-110 -61,-186 -36,-26 -680,-406 -1543,-619 -408,-100 -934,-120 -1416,-120 -274,0 -164,55 -211,137 -6,25 -87,84 0,154l0 0z"/>
   <path class="fil0 str0" d="M1545 7083c157,37 556,-313 1620,-528 471,-95 765,-144 1493,-146 144,-9 90,-170 71,-204 -49,-79 53,-144 -136,-137 -44,-7 -788,-59 -1657,127 -411,88 -893,297 -1327,505 -249,114 -143,126 -150,218 5,24 -23,141 86,165zm165 -2227c98,72 931,-288 2584,-7 108,19 127,-35 118,-72 -13,-47 -64,-215 -265,-290 -46,-22 -1033,-308 -2230,22 -87,29 -210,94 -234,213 0,25 -31,107 27,134z"/>
   <path class="fil1 str1" d="M267 7567l88 67c0,0 31,-1214 666,-1356m3995 91c0,0 228,-48 353,402"/>
   <path class="fil1 str2" d="M587 11746c0,104 4,206 13,307 129,1481 1175,2635 2447,2635 1358,0 2460,-1317 2460,-2942"/>
   <path class="fil1 str2" d="M743 11157c0,104 4,207 12,308 121,1480 1101,2634 2292,2634 1272,0 2304,-1317 2304,-2942"/>
  </g>
  <g id="_1309383792">
   <path class="fil2 str2" d="M3284 14176c0,0 1408,-242 1408,-2112 0,-214 39,-503 115,-610 102,-202 226,-578 71,-925 -37,-96 -91,-556 -138,-1055 -48,-499 -98,-780 -131,-1607 0,-951 -2,-703 161,-1968 37,-542 334,-1081 58,-2329 -88,-400 21,-907 46,-1163 25,-257 -25,-962 -332,-1416 -94,-135 -326,-434 -798,-339 -92,19 -608,235 -467,872 141,637 152,1329 152,1646 -48,0 -51,135 -180,-1060 -22,-186 -37,-1231 -599,-1044 -123,32 -564,198 -349,750 159,408 342,1280 190,1581 19,-215 -67,-1116 -253,-1442 -118,-234 -196,-279 -373,-279 -65,0 -670,198 -323,911 115,311 269,983 115,1275 0,-178 -7,-727 -116,-1060 -79,-327 -236,-351 -439,-240 -103,82 -409,240 -193,1171 122,351 100,728 14,941 34,-280 -6,-925 -128,-1175 -67,-59 -480,6 -544,735 0,440 -195,701 -53,1579 53,531 98,1083 310,1973 467,2274 759,2090 954,3345 195,1408 -126,2276 1119,2918 196,127 703,127 703,127z"/>
   <path class="fil2 str2" d="M4267 884c0,0 -184,-108 -457,-48 -111,26 -385,125 -422,278 37,197 132,462 132,462 0,0 489,23 926,-236 -21,-190 -179,-456 -179,-456l0 0zm-1392 387c0,0 -123,-77 -305,-22 -95,25 -259,97 -263,190 22,95 54,216 54,216 0,0 371,-22 592,-168 -14,-92 -78,-216 -78,-216zm-900 553c0,0 -110,-59 -262,3 -79,29 -214,105 -210,187 27,83 63,188 63,188 0,0 316,-47 493,-192 -19,-81 -84,-186 -84,-186l0 0zm-651 811c0,0 -85,-62 -198,-5 -58,27 -158,99 -152,181 22,83 53,188 53,188 0,0 237,-37 366,-176 -17,-82 -69,-188 -69,-188l0 0zm-540 994c0,0 -50,-47 -130,-21 -41,11 -113,47 -117,98 7,54 18,122 18,122 0,0 159,-3 257,-78 -3,-51 -28,-121 -28,-121l0 0z"/>
  </g>
 </g>
</svg>
